<?xml version="1.0" encoding="UTF-8" standalone="no"?>
<!-- Created with Inkscape (http://www.inkscape.org/) -->

<svg
   xmlns:dc="http://purl.org/dc/elements/1.1/"
   xmlns:cc="http://creativecommons.org/ns#"
   xmlns:rdf="http://www.w3.org/1999/02/22-rdf-syntax-ns#"
   xmlns:svg="http://www.w3.org/2000/svg"
   xmlns="http://www.w3.org/2000/svg"
   xmlns:sodipodi="http://sodipodi.sourceforge.net/DTD/sodipodi-0.dtd"
   xmlns:inkscape="http://www.inkscape.org/namespaces/inkscape"
   width="210mm"
   height="297mm"
   viewBox="0 0 210 297"
   version="1.1"
   id="svg891"
   inkscape:version="0.92.4 (5da689c313, 2019-01-14)"
   sodipodi:docname="logov6.svg">
  <defs
     id="defs885" />
  <sodipodi:namedview
     id="base"
     pagecolor="#ffffff"
     bordercolor="#666666"
     borderopacity="1.0"
     inkscape:pageopacity="0.0"
     inkscape:pageshadow="2"
     inkscape:zoom="1.4"
     inkscape:cx="229.90171"
     inkscape:cy="642.01866"
     inkscape:document-units="mm"
     inkscape:current-layer="layer1"
     showgrid="false"
     inkscape:window-width="1920"
     inkscape:window-height="1017"
     inkscape:window-x="-8"
     inkscape:window-y="-8"
     inkscape:window-maximized="1" />
  <metadata
     id="metadata888">
    <rdf:RDF>
      <cc:Work
         rdf:about="">
        <dc:format>image/svg+xml</dc:format>
        <dc:type
           rdf:resource="http://purl.org/dc/dcmitype/StillImage" />
        <dc:title />
      </cc:Work>
    </rdf:RDF>
  </metadata>
  <g
     inkscape:label="Calque 1"
     inkscape:groupmode="layer"
     id="layer1">
    <path
       inkscape:connector-curvature="0"
       inkscape:export-ydpi="60.424774"
       inkscape:export-xdpi="60.424774"
       inkscape:export-filename="D:\Desktop\path5399.png"
       d="m 171.00067,138.58492 -1.16886,1.33122 -1.06679,1.21515 -5.33556,6.0769 -4.2683,4.86151 -5.33557,6.0769 -1.06702,1.21538 -1.60064,1.82307 -3.73491,4.25383 h 7.46508 28.04797 l -7.4912,-4.25383 -3.21055,-1.82307 h -13.70008 l 0.72923,-1.21538 3.64614,-6.0769 2.91691,-4.86151 3.64638,-6.0769 0.72898,-1.21515 z m -150.585519,2.54637 v 5.59952 0.47738 h 10.489771 5.657447 2.491528 a 2.4307587,2.4307587 0 0 1 0.242605,0.0123 2.4307587,2.4307587 0 0 1 0.240225,0.0363 2.4307587,2.4307587 0 0 1 0.235478,0.06 2.4307587,2.4307587 0 0 1 0.22836,0.0833 2.4307587,2.4307587 0 0 1 0.218626,0.10563 2.4307587,2.4307587 0 0 1 0.207229,0.12699 2.4307587,2.4307587 0 0 1 0.193468,0.14694 2.4307587,2.4307587 0 0 1 0.177794,0.16569 2.4307587,2.4307587 0 0 1 0.160231,0.18254 2.4307587,2.4307587 0 0 1 0.141478,0.19774 2.4307587,2.4307587 0 0 1 0.120825,0.2108 2.4307587,2.4307587 0 0 1 0.09923,0.22171 2.4307587,2.4307587 0 0 1 0.07667,0.2305 2.4307587,2.4307587 0 0 1 0.05317,0.23713 2.4307587,2.4307587 0 0 1 0.02921,0.24118 2.4307587,2.4307587 0 0 1 0.0062,0.17186 2.4307587,2.4307587 0 0 1 -0.01212,0.24284 2.4307587,2.4307587 0 0 1 -0.03633,0.24023 2.4307587,2.4307587 0 0 1 -0.06006,0.23548 2.4307587,2.4307587 0 0 1 -0.08332,0.22811 2.4307587,2.4307587 0 0 1 -0.105633,0.21887 2.4307587,2.4307587 0 0 1 -0.126998,0.20699 2.4307587,2.4307587 0 0 1 -0.147173,0.19346 2.4307587,2.4307587 0 0 1 -0.16569,0.1778 2.4307587,2.4307587 0 0 1 -0.182544,0.16047 2.4307587,2.4307587 0 0 1 -0.197499,0.14125 2.4307587,2.4307587 0 0 1 -0.210795,0.12082 2.4307587,2.4307587 0 0 1 -0.221713,0.0992 2.4307587,2.4307587 0 0 1 -0.23073,0.0767 2.4307587,2.4307587 0 0 1 -0.236902,0.0532 2.4307587,2.4307587 0 0 1 -0.241416,0.0294 2.4307587,2.4307587 0 0 1 -0.171863,0.006 h -1.397972 -1.093607 -5.654598 -8.781119 l 10.701989,6.0769 2.140443,1.21537 1.593285,0.90465 1.617264,0.91842 7.491436,4.25383 h 0.0064 l -2.552297,-4.25383 -1.093841,-1.82307 -0.729227,-1.21537 -0.160472,-0.26777 a 8.507657,8.507657 0 0 0 0.188005,-0.0423 8.507657,8.507657 0 0 0 0.807088,-0.268 8.507657,8.507657 0 0 0 0.77623,-0.34753 8.507657,8.507657 0 0 0 0.737771,-0.42299 8.507657,8.507657 0 0 0 0.691727,-0.4947 8.507657,8.507657 0 0 0 0.2661,-0.23383 13.501755,13.369156 0 0 1 -0.116079,-0.51203 13.501755,13.369156 0 0 1 -0.162604,-1.3267 13.501755,13.369156 0 0 1 -0.03395,-0.94571 13.501755,13.369156 0 0 1 0.06148,-1.21538 13.501755,13.369156 0 0 1 0.0059,-0.11917 13.501755,13.369156 0 0 1 0.201772,-1.32148 13.501755,13.369156 0 0 1 0.333993,-1.29467 13.501755,13.369156 0 0 1 0.462649,-1.2555 13.501755,13.369156 0 0 1 0.42467,-0.8707 13.501755,13.369156 0 0 1 0.162369,-0.33257 13.501755,13.369156 0 0 1 0.682939,-1.10287 8.507657,8.507657 0 0 0 -0.418975,-0.7304 8.507657,8.507657 0 0 0 -0.49446,-0.69173 8.507657,8.507657 0 0 0 -0.561401,-0.63903 8.507657,8.507657 0 0 0 -0.622171,-0.57968 8.507657,8.507657 0 0 0 -0.677004,-0.51464 8.507657,8.507657 0 0 0 -0.724956,-0.44436 8.507657,8.507657 0 0 0 -0.765782,-0.36984 8.507657,8.507657 0 0 0 -0.798779,-0.29174 8.507657,8.507657 0 0 0 -0.824182,-0.21031 8.507657,8.507657 0 0 0 -0.840791,-0.12724 8.507657,8.507657 0 0 0 -0.849343,-0.0425 8.507657,8.507657 0 0 0 -0.0037,0 z m 37.382653,0 a 12.274356,12.153813 0 0 0 -0.65066,0.023 12.274356,12.153813 0 0 0 -0.217676,0.008 12.274356,12.153813 0 0 0 -1.217992,0.14624 12.274356,12.153813 0 0 0 -1.197097,0.26609 12.274356,12.153813 0 0 0 -1.164345,0.38314 12.274356,12.153813 0 0 0 -1.119952,0.49635 12.274356,12.153813 0 0 0 -1.064171,0.60437 12.274356,12.153813 0 0 0 -0.997937,0.70667 12.274356,12.153813 0 0 0 -0.921744,0.80187 12.274356,12.153813 0 0 0 -0.836524,0.88875 12.274356,12.153813 0 0 0 -0.708097,0.92269 12.274356,12.153813 0 0 0 -0.0344,0.0446 12.274356,12.153813 0 0 0 -0.04488,0.0724 12.274356,12.153813 0 0 0 -0.428946,0.69291 12.274356,12.153813 0 0 0 -0.01259,0.0202 12.274356,12.153813 0 0 0 -0.154771,0.25019 12.274356,12.153813 0 0 0 -0.533625,1.09385 12.274356,12.153813 0 0 0 -0.42087,1.14131 12.274356,12.153813 0 0 0 -0.303374,1.17716 12.274356,12.153813 0 0 0 -0.183255,1.199 12.274356,12.153813 0 0 0 -2.58e-4,0.002 12.274356,12.153813 0 0 0 -0.06124,1.21324 12.274356,12.153813 0 0 0 0.03064,0.85979 12.274356,12.153813 0 0 0 0.103969,0.8472 12.274356,12.153813 0 0 0 0.04392,0.35891 12.274356,12.153813 0 0 0 0.268714,1.18524 12.274356,12.153813 0 0 0 0.386929,1.15295 12.274356,12.153813 0 0 0 0.206756,0.45743 12.274356,12.153813 0 0 0 0.294353,0.6516 12.274356,12.153813 0 0 0 0.326628,0.56378 12.274356,12.153813 0 0 0 0.283905,0.48994 12.274356,12.153813 0 0 0 0.153113,0.21199 12.274356,12.153813 0 0 0 0.560689,0.77623 12.274356,12.153813 0 0 0 0.305978,0.34491 12.274356,12.153813 0 0 0 0.50372,0.56781 12.274356,12.153813 0 0 0 0.897765,0.82798 12.274356,12.153813 0 0 0 0.976579,0.73539 12.274356,12.153813 0 0 0 1.046128,0.63498 12.274356,12.153813 0 0 0 1.10476,0.52841 12.274356,12.153813 0 0 0 1.152472,0.4166 12.274356,12.153813 0 0 0 1.188797,0.30053 12.274356,12.153813 0 0 0 1.213242,0.18159 12.274356,12.153813 0 0 0 1.220602,0.0605 12.274356,12.153813 0 0 0 0.0047,2.5e-4 12.274356,12.153813 0 0 0 0.0067,-2.5e-4 12.274356,12.153813 0 0 0 0.03845,0 h 5.53995 a 13.501755,13.369156 0 0 0 0.09922,-0.042 13.501755,13.369156 0 0 0 0.09899,-0.0427 13.501755,13.369156 0 0 1 -0.09899,0.0427 13.501755,13.369156 0 0 1 -0.09922,0.042 h 6.688622 v -4.25383 -1.82307 h -0.262568 -1.394122 -10.610356 -0.01139 a 6.1371878,6.0769154 0 0 1 -0.607924,-0.0301 6.1371878,6.0769154 0 0 1 -0.60674,-0.0909 6.1371878,6.0769154 0 0 1 -0.594398,-0.15026 6.1371878,6.0769154 0 0 1 -0.576117,-0.20818 6.1371878,6.0769154 0 0 1 -0.552381,-0.26422 6.1371878,6.0769154 0 0 1 -0.522947,-0.3176 6.1371878,6.0769154 0 0 1 -0.204619,-0.15406 6.1371878,6.0769154 0 0 1 -0.283907,-0.21364 6.1371878,6.0769154 0 0 1 -0.448883,-0.41399 6.1371878,6.0769154 0 0 1 -0.404733,-0.45624 6.1371878,6.0769154 0 0 1 -0.357015,-0.49423 6.1371878,6.0769154 0 0 1 -0.30527,-0.52674 6.1371878,6.0769154 0 0 1 -0.250433,-0.55452 6.1371878,6.0769154 0 0 1 -0.193466,-0.57659 6.1371878,6.0769154 0 0 1 -0.134358,-0.59249 6.1371878,6.0769154 0 0 1 -0.07382,-0.60319 6.1371878,6.0769154 0 0 1 -0.01543,-0.42989 6.1371878,6.0769154 0 0 1 0.03064,-0.60651 6.1371878,6.0769154 0 0 1 0.09163,-0.60057 6.1371878,6.0769154 0 0 1 0.0023,-0.008 6.1371878,6.0769154 0 0 1 0.149551,-0.58039 6.1371878,6.0769154 0 0 1 0.210555,-0.57066 6.1371878,6.0769154 0 0 1 0.266813,-0.54692 6.1371878,6.0769154 0 0 1 0.320699,-0.51773 6.1371878,6.0769154 0 0 1 0.330906,-0.43131 6.1371878,6.0769154 0 0 1 0.04038,-0.0525 6.1371878,6.0769154 0 0 1 0.418024,-0.44437 6.1371878,6.0769154 0 0 1 0.460991,-0.40093 6.1371878,6.0769154 0 0 1 0.498973,-0.35322 6.1371878,6.0769154 0 0 1 0.531961,-0.30242 6.1371878,6.0769154 0 0 1 0.559977,-0.24806 6.1371878,6.0769154 0 0 1 0.582287,-0.19157 6.1371878,6.0769154 0 0 1 0.598439,-0.13293 6.1371878,6.0769154 0 0 1 0.609108,-0.0731 6.1371878,6.0769154 0 0 1 0.43417,-0.0154 6.1371878,6.0769154 0 0 1 0.612675,0.0304 6.1371878,6.0769154 0 0 1 0.606501,0.0909 6.1371878,6.0769154 0 0 1 0.594395,0.15027 6.1371878,6.0769154 0 0 1 0.576356,0.20817 6.1371878,6.0769154 0 0 1 0.552385,0.26421 6.1371878,6.0769154 0 0 1 0.522942,0.31761 6.1371878,6.0769154 0 0 1 0.48829,0.36746 6.1371878,6.0769154 0 0 1 0.448885,0.41423 6.1371878,6.0769154 0 0 1 0.404966,0.45624 6.1371878,6.0769154 0 0 1 0.356777,0.49422 6.1371878,6.0769154 0 0 1 0.305272,0.52674 6.1371878,6.0769154 0 0 1 0.250669,0.55452 6.1371878,6.0769154 0 0 1 0.193468,0.57636 6.1371878,6.0769154 0 0 1 0.09305,0.41019 h -6.079284 l 5.82623,3.30835 4.875519,2.76855 0.480456,0.27274 a 12.274356,12.153813 0 0 0 0.133172,-0.27274 12.274356,12.153813 0 0 0 0.06266,-0.12843 12.274356,12.153813 0 0 0 0.42064,-1.14132 12.274356,12.153813 0 0 0 0.303605,-1.17715 12.274356,12.153813 0 0 0 0.183255,-1.20114 12.274356,12.153813 0 0 0 0.06077,-1.19948 v -0.0339 a 12.274356,12.153813 0 0 0 -0.03013,-0.83961 12.274356,12.153813 0 0 0 -0.04369,-0.35582 12.274356,12.153813 0 0 0 -0.10421,-0.85029 12.274356,12.153813 0 0 0 -0.268707,-1.18524 12.274356,12.153813 0 0 0 -0.386694,-1.15295 12.274356,12.153813 0 0 0 -0.501345,-1.10903 12.274356,12.153813 0 0 0 -0.03206,-0.0555 12.274356,12.153813 0 0 0 -0.294825,-0.50847 12.274356,12.153813 0 0 0 -0.283668,-0.48971 12.274356,12.153813 0 0 0 -0.713557,-0.98822 12.274356,12.153813 0 0 0 -0.05579,-0.0629 12.274356,12.153813 0 0 0 -0.753913,-0.84981 12.274356,12.153813 0 0 0 -0.897771,-0.82822 12.274356,12.153813 0 0 0 -0.976812,-0.73516 12.274356,12.153813 0 0 0 -1.045893,-0.63499 12.274356,12.153813 0 0 0 -1.104758,-0.52841 12.274356,12.153813 0 0 0 -1.152714,-0.41659 12.274356,12.153813 0 0 0 -1.188556,-0.30053 12.274356,12.153813 0 0 0 -0.59914,-0.0897 12.274356,12.153813 0 0 0 -0.614102,-0.0919 12.274356,12.153813 0 0 0 -1.225345,-0.0608 z m 5.592166,0 a 13.501755,13.369156 0 0 1 0.880914,0.42135 13.501755,13.369156 0 0 1 1.150574,0.6986 13.501755,13.369156 0 0 1 1.074376,0.80875 13.501755,13.369156 0 0 1 0.987496,0.91083 13.501755,13.369156 0 0 1 0.890646,1.00386 13.501755,13.369156 0 0 1 0.78501,1.0872 13.501755,13.369156 0 0 1 0.542887,0.93717 13.501755,13.369156 0 0 1 0.121301,0.20914 h 0.247109 0.0014 3.646137 v 2.07088 1.28422 1.50641 6.0769 1.21538 1.82307 4.25383 h 6.076655 v -4.25383 -1.82307 -1.21538 -4.13301 -1.28397 -0.65992 -4.27875 -0.58276 h 3.646139 0.263252 1.394363 4.372052 5.637502 v -6.05554 a 12.274356,12.153813 0 0 0 -0.10302,0.003 12.274356,12.153813 0 0 1 0.10302,-0.003 v -0.0214 h -4.977126 a 13.501755,13.369156 0 0 0 -0.09946,0.042 13.501755,13.369156 0 0 0 -0.07192,0.0309 13.501755,13.369156 0 0 1 0.07192,-0.0309 13.501755,13.369156 0 0 1 0.09946,-0.042 h -6.690062 -3.646138 -6.076654 -3.646141 z m 32.932983,0 v 0.0301 5.56938 0.47738 0.0301 a 6.1371878,6.0769154 0 0 1 0.0046,2.6e-4 6.1371878,6.0769154 0 0 1 0.606745,0.0909 6.1371878,6.0769154 0 0 1 0.594393,0.15027 6.1371878,6.0769154 0 0 1 0.576125,0.20817 6.1371878,6.0769154 0 0 1 0.552378,0.26421 6.1371878,6.0769154 0 0 1 0.52294,0.31761 6.1371878,6.0769154 0 0 1 0.488535,0.36746 6.1371878,6.0769154 0 0 1 0.448881,0.41423 6.1371878,6.0769154 0 0 1 0.40473,0.45624 6.1371878,6.0769154 0 0 1 0.35702,0.49422 6.1371878,6.0769154 0 0 1 0.30503,0.52674 6.1371878,6.0769154 0 0 1 0.25067,0.55452 6.1371878,6.0769154 0 0 1 0.19347,0.57636 6.1371878,6.0769154 0 0 1 0.0931,0.41019 6.1371878,6.0769154 0 0 1 0.0413,0.18254 6.1371878,6.0769154 0 0 1 0.0738,0.60318 6.1371878,6.0769154 0 0 1 0.0154,0.42966 6.1371878,6.0769154 0 0 1 -0.0306,0.60674 6.1371878,6.0769154 0 0 1 -0.0461,0.30194 6.1371878,6.0769154 0 0 1 -3.9e-4,0.001 l 3.55214,2.017 1.95054,1.1076 a 12.274356,12.153813 0 0 0 5.1e-4,-0.001 12.274356,12.153813 0 0 0 0.16284,-0.44176 12.274356,12.153813 0 0 0 0.21625,-0.83889 12.274356,12.153813 0 0 0 0.0871,-0.33827 12.274356,12.153813 0 0 0 0.1835,-1.20113 12.274356,12.153813 0 0 0 0.004,-0.0817 12.274356,12.153813 0 0 0 0.0572,-1.13182 12.274356,12.153813 0 0 0 -0.0306,-0.85955 12.274356,12.153813 0 0 0 -0.0437,-0.35583 12.274356,12.153813 0 0 0 -0.10421,-0.85029 12.274356,12.153813 0 0 0 -0.26871,-1.18524 12.274356,12.153813 0 0 0 -0.38693,-1.15294 12.274356,12.153813 0 0 0 -0.49161,-1.08814 12.274356,12.153813 0 0 0 -0.01,-0.0209 12.274356,12.153813 0 0 0 -0.32688,-0.56401 h 0.48545 0.92791 4.72976 2.49153 a 2.4307587,2.4307587 0 0 1 0.24261,0.0123 2.4307587,2.4307587 0 0 1 0.24023,0.0363 2.4307587,2.4307587 0 0 1 0.23547,0.0601 2.4307587,2.4307587 0 0 1 0.22812,0.0833 2.4307587,2.4307587 0 0 1 0.21887,0.10563 2.4307587,2.4307587 0 0 1 0.20723,0.12699 2.4307587,2.4307587 0 0 1 0.19346,0.14694 2.4307587,2.4307587 0 0 1 0.17756,0.1657 2.4307587,2.4307587 0 0 1 0.16048,0.18253 2.4307587,2.4307587 0 0 1 0.14124,0.19775 2.4307587,2.4307587 0 0 1 0.12106,0.21079 2.4307587,2.4307587 0 0 1 0.0992,0.22171 2.4307587,2.4307587 0 0 1 0.0767,0.2305 2.4307587,2.4307587 0 0 1 0.0532,0.23713 2.4307587,2.4307587 0 0 1 0.0292,0.24118 2.4307587,2.4307587 0 0 1 0.006,0.17187 2.4307587,2.4307587 0 0 1 -0.0121,0.24283 2.4307587,2.4307587 0 0 1 -0.0363,0.24023 2.4307587,2.4307587 0 0 1 -0.0603,0.23548 2.4307587,2.4307587 0 0 1 -0.0833,0.22812 2.4307587,2.4307587 0 0 1 -0.10564,0.21886 2.4307587,2.4307587 0 0 1 -0.12699,0.20699 2.4307587,2.4307587 0 0 1 -0.14695,0.19347 2.4307587,2.4307587 0 0 1 -0.16568,0.1778 2.4307587,2.4307587 0 0 1 -0.18255,0.16046 2.4307587,2.4307587 0 0 1 -0.19774,0.14125 2.4307587,2.4307587 0 0 1 -0.21055,0.12082 2.4307587,2.4307587 0 0 1 -0.22195,0.0992 2.4307587,2.4307587 0 0 1 -0.23049,0.0767 2.4307587,2.4307587 0 0 1 -0.23714,0.0532 2.4307587,2.4307587 0 0 1 -0.24118,0.0294 2.4307587,2.4307587 0 0 1 -0.17187,0.006 h -1.39791 -1.09362 -3.32045 a 13.501755,13.369156 0 0 1 0.033,0.2699 13.501755,13.369156 0 0 1 0.0339,0.94548 13.501755,13.369156 0 0 1 -0.0674,1.33478 13.501755,13.369156 0 0 1 -0.1626,1.06559 13.501755,13.369156 0 0 1 -0.0391,0.25589 13.501755,13.369156 0 0 1 -0.28415,1.10192 13.501755,13.369156 0 0 1 -0.0499,0.19275 13.501755,13.369156 0 0 1 -0.25613,0.69528 l 0.37909,0.21531 h -0.003 l 2.1402,1.21538 1.59613,0.90631 1.61466,0.91676 7.45441,4.23293 v -0.002 -0.0543 l -2.50624,-4.17692 -1.09385,-1.82307 -0.23975,-0.39975 -0.48947,-0.81563 -0.16047,-0.26776 a 8.507657,8.507657 0 0 0 0.188,-0.0423 8.507657,8.507657 0 0 0 0.80709,-0.268 8.507657,8.507657 0 0 0 0.77623,-0.34753 8.507657,8.507657 0 0 0 0.73754,-0.423 8.507657,8.507657 0 0 0 0.69172,-0.49469 8.507657,8.507657 0 0 0 0.3563,-0.31311 8.507657,8.507657 0 0 0 0.28272,-0.2483 8.507657,8.507657 0 0 0 0.57967,-0.62217 8.507657,8.507657 0 0 0 0.0705,-0.0928 8.507657,8.507657 0 0 0 0.11965,-0.15738 8.507657,8.507657 0 0 0 0.32449,-0.4268 8.507657,8.507657 0 0 0 0.43772,-0.71404 8.507657,8.507657 0 0 0 0.007,-0.0109 8.507657,8.507657 0 0 0 0.37008,-0.76579 8.507657,8.507657 0 0 0 0.2915,-0.79877 8.507657,8.507657 0 0 0 0.0214,-0.0836 8.507657,8.507657 0 0 0 0.18896,-0.74038 8.507657,8.507657 0 0 0 0.12723,-0.84103 8.507657,8.507657 0 0 0 0.0425,-0.84934 8.507657,8.507657 0 0 0 -0.0214,-0.60176 8.507657,8.507657 0 0 0 -0.10256,-0.84412 8.507657,8.507657 0 0 0 -0.1861,-0.82987 8.507657,8.507657 0 0 0 -0.0204,-0.0615 8.507657,8.507657 0 0 0 -0.0311,-0.0935 8.507657,8.507657 0 0 0 -0.21672,-0.65209 8.507657,8.507657 0 0 0 -0.3055,-0.68269 8.507657,8.507657 0 0 0 -0.0418,-0.0933 8.507657,8.507657 0 0 0 -0.12273,-0.21389 8.507657,8.507657 0 0 0 -0.30051,-0.52389 8.507657,8.507657 0 0 0 -0.4947,-0.69172 8.507657,8.507657 0 0 0 -0.0866,-0.0987 8.507657,8.507657 0 0 0 -0.47452,-0.54028 8.507657,8.507657 0 0 0 -0.62218,-0.57968 8.507657,8.507657 0 0 0 -0.677,-0.51464 8.507657,8.507657 0 0 0 -0.72519,-0.44436 8.507657,8.507657 0 0 0 -0.76554,-0.36984 8.507657,8.507657 0 0 0 -0.79902,-0.29174 8.507657,8.507657 0 0 0 -0.82394,-0.21031 8.507657,8.507657 0 0 0 -0.8408,-0.12724 8.507657,8.507657 0 0 0 -0.84934,-0.0425 8.507657,8.507657 0 0 0 -0.004,0 h -4.68092 -4.94981 -4.02001 z m 25.216277,24.23068 0.046,0.0769 h 0.83581 1.10904 4.14582 5.2e-4 v -0.26041 -1.3806 -2.61282 -1.82307 -1.21538 -4.86152 a 6.1371878,6.0769154 0 0 1 0.0309,-0.60651 6.1371878,6.0769154 0 0 1 0.0916,-0.60057 6.1371878,6.0769154 0 0 1 0.002,-0.008 6.1371878,6.0769154 0 0 1 0.14954,-0.58039 6.1371878,6.0769154 0 0 1 0.21032,-0.57066 6.1371878,6.0769154 0 0 1 0.26681,-0.54692 6.1371878,6.0769154 0 0 1 0.32071,-0.51773 6.1371878,6.0769154 0 0 1 0.37126,-0.48378 6.1371878,6.0769154 0 0 1 0.41826,-0.44437 6.1371878,6.0769154 0 0 1 0.46075,-0.40093 6.1371878,6.0769154 0 0 1 0.49897,-0.35322 6.1371878,6.0769154 0 0 1 0.53221,-0.30243 6.1371878,6.0769154 0 0 1 0.55997,-0.24805 6.1371878,6.0769154 0 0 1 0.58229,-0.19157 6.1371878,6.0769154 0 0 1 0.59843,-0.13293 6.1371878,6.0769154 0 0 1 0.60912,-0.0731 6.1371878,6.0769154 0 0 1 0.43393,-0.0154 6.1371878,6.0769154 0 0 1 0.6129,0.0304 6.1371878,6.0769154 0 0 1 0.60651,0.0909 6.1371878,6.0769154 0 0 1 0.5944,0.15027 6.1371878,6.0769154 0 0 1 0.57611,0.20817 6.1371878,6.0769154 0 0 1 0.55239,0.26421 6.1371878,6.0769154 0 0 1 0.52317,0.31761 6.1371878,6.0769154 0 0 1 0.48829,0.36746 6.1371878,6.0769154 0 0 1 0.44889,0.41422 6.1371878,6.0769154 0 0 1 0.40497,0.45625 6.1371878,6.0769154 0 0 1 0.35678,0.49422 6.1371878,6.0769154 0 0 1 0.30526,0.52674 6.1371878,6.0769154 0 0 1 0.25044,0.55452 6.1371878,6.0769154 0 0 1 0.19346,0.57636 6.1371878,6.0769154 0 0 1 0.093,0.41019 6.1371878,6.0769154 0 0 1 0.0413,0.18254 6.1371878,6.0769154 0 0 1 0.0741,0.60318 6.1371878,6.0769154 0 0 1 0.0152,0.42966 v 4.86152 1.21538 1.82306 0.76911 1.83921 a 12.274356,12.153813 0 0 0 0.0902,-0.0491 12.274356,12.153813 0 0 1 -0.0902,0.0491 v 1.39911 0.2464 h 3.71212 l 0.61601,-1.0269 1.80907,-3.01495 v -0.21198 -1.82306 -0.53933 -0.67605 -4.86152 a 12.274356,12.153813 0 0 0 -0.0306,-0.85956 12.274356,12.153813 0 0 0 -0.0437,-0.35582 12.274356,12.153813 0 0 0 -0.10421,-0.85029 12.274356,12.153813 0 0 0 -0.2687,-1.18524 12.274356,12.153813 0 0 0 -0.38693,-1.15295 12.274356,12.153813 0 0 0 -0.50111,-1.10903 12.274356,12.153813 0 0 0 -0.32688,-0.56401 12.274356,12.153813 0 0 0 -0.28366,-0.48971 12.274356,12.153813 0 0 0 -0.71356,-0.98822 12.274356,12.153813 0 0 0 -0.80994,-0.91271 12.274356,12.153813 0 0 0 -0.89752,-0.82822 12.274356,12.153813 0 0 0 -0.97682,-0.73516 12.274356,12.153813 0 0 0 -0.79355,-0.48188 12.274356,12.153813 0 0 0 -0.25234,-0.15311 12.274356,12.153813 0 0 0 -1.105,-0.52841 12.274356,12.153813 0 0 0 -1.15247,-0.41659 12.274356,12.153813 0 0 0 -1.1888,-0.30053 12.274356,12.153813 0 0 0 -1.213,-0.18159 12.274356,12.153813 0 0 0 -1.22559,-0.0608 12.274356,12.153813 0 0 0 -0.86809,0.0306 12.274356,12.153813 0 0 0 -1.21799,0.14623 12.274356,12.153813 0 0 0 -1.19711,0.2661 12.274356,12.153813 0 0 0 -1.16434,0.38314 12.274356,12.153813 0 0 0 -1.11995,0.49634 12.274356,12.153813 0 0 0 -0.56971,0.32355 12.274356,12.153813 0 0 0 -0.49446,0.28083 12.274356,12.153813 0 0 0 -0.99818,0.70667 12.274356,12.153813 0 0 0 -0.92174,0.80187 12.274356,12.153813 0 0 0 -0.83628,0.88874 12.274356,12.153813 0 0 0 -0.44058,0.57399 9.7229981,9.7229981 0 0 1 0.0387,0.0864 9.7229981,9.7229981 0 0 1 0.30646,0.92245 9.7229981,9.7229981 0 0 1 0.0382,0.16997 9.7229981,9.7229981 0 0 1 0.17471,0.77837 9.7229981,9.7229981 0 0 1 0.11703,0.9647 9.7229981,9.7229981 0 0 1 0.0244,0.68769 9.7229981,9.7229981 0 0 1 -0.0487,0.97088 9.7229981,9.7229981 0 0 1 -0.14528,0.9609 9.7229981,9.7229981 0 0 1 -0.12747,0.49898 9.7229981,9.7229981 0 0 1 -0.113,0.44271 9.7229981,9.7229981 0 0 1 -0.33328,0.91296 9.7229981,9.7229981 0 0 1 -0.38692,0.80091 9.7229981,9.7229981 0 0 1 -0.0358,0.0743 9.7229981,9.7229981 0 0 1 -0.508,0.82846 9.7229981,9.7229981 0 0 1 -0.5652,0.7437 9.7229981,9.7229981 0 0 1 -0.0228,0.0299 9.7229981,9.7229981 0 0 1 -0.4465,0.47926 12.274356,12.153813 0 0 0 0.0216,0.0957 12.274356,12.153813 0 0 1 -0.0216,-0.0957 9.7229981,9.7229981 0 0 1 -0.21601,0.23193 9.7229981,9.7229981 0 0 1 -0.19655,0.17257 v 1.36018 0.66822 0.54716 1.82307 0.76911 z m 17.86679,-24.23068 a 13.501755,13.369156 0 0 1 0.54479,0.26064 13.501755,13.369156 0 0 1 0.33588,0.16071 13.501755,13.369156 0 0 1 1.15058,0.6986 13.501755,13.369156 0 0 1 1.07462,0.80875 13.501755,13.369156 0 0 1 0.98749,0.91083 13.501755,13.369156 0 0 1 0.89065,1.00386 13.501755,13.369156 0 0 1 0.78501,1.0872 13.501755,13.369156 0 0 1 0.66419,1.14631 h 0.24877 8.51334 1.28351 l -2.91691,4.86151 -3.64613,6.0769 -0.72923,1.21538 -1.09384,1.82307 -1.41074,2.35123 -0.85172,1.41929 -0.28983,0.48331 -0.72923,1.21538 -1.35283,2.25485 1.97975,-2.25485 1.06702,-1.21538 0.0586,-0.0669 0.11822,-0.13436 3.55806,-4.05252 1.60065,-1.82307 1.06702,-1.21538 5.33557,-6.0769 4.2683,-4.86151 5.33532,-6.0769 h -7.72169 -1.2835 -12.15973 -6.13719 z m -43.079979,0.0301 a 12.274356,12.153813 0 0 1 0.19892,0.007 12.274356,12.153813 0 0 0 -0.19892,-0.007 z m 0.414695,0.0176 a 12.274356,12.153813 0 0 1 0.192045,0.0126 12.274356,12.153813 0 0 0 -0.192045,-0.0126 z m -58.634454,0.005 a 8.507657,8.507657 0 0 0 -0.146465,0.0176 8.507657,8.507657 0 0 1 0.146465,-0.0176 z m 75.907808,0 a 8.507657,8.507657 0 0 0 -0.14647,0.0176 8.507657,8.507657 0 0 1 0.14647,-0.0176 z m -19.507315,0.006 a 12.274356,12.153813 0 0 0 -0.07027,0.007 12.274356,12.153813 0 0 1 0.07027,-0.007 z m -0.213881,0.023 a 12.274356,12.153813 0 0 0 -0.136733,0.0164 12.274356,12.153813 0 0 1 0.136733,-0.0164 z m 15.823436,0.005 a 9.7229981,9.7229981 0 0 0 -0.0655,0.0368 9.7229981,9.7229981 0 0 1 0.0655,-0.0368 z m -8.57651,0.0166 a 13.501755,13.369156 0 0 1 0.0681,0.0316 13.501755,13.369156 0 0 0 -0.0681,-0.0316 z m -3.79141,0.0643 a 12.274356,12.153813 0 0 1 0.07169,0.0123 12.274356,12.153813 0 0 0 -0.07169,-0.0123 z m -4.63837,0.10872 a 12.274356,12.153813 0 0 0 -0.187537,0.042 12.274356,12.153813 0 0 1 0.187537,-0.042 z m -3.631424,0.0197 a 13.501755,13.369156 0 0 0 -0.07977,0.0413 13.501755,13.369156 0 0 1 0.07977,-0.0413 z m 9.069054,0.0318 a 12.274356,12.153813 0 0 1 0.04891,0.0116 12.274356,12.153813 0 0 0 -0.04891,-0.0116 z m -61.985301,0.0534 a 8.507657,8.507657 0 0 0 -0.08189,0.0245 8.507657,8.507657 0 0 0 -0.08166,0.0252 8.507657,8.507657 0 0 0 -0.07216,0.023 8.507657,8.507657 0 0 1 0.07216,-0.023 8.507657,8.507657 0 0 1 0.08166,-0.0252 8.507657,8.507657 0 0 1 0.08189,-0.0245 z m 75.907801,0 a 8.507657,8.507657 0 0 0 -0.0819,0.0245 8.507657,8.507657 0 0 0 -0.0817,0.0252 8.507657,8.507657 0 0 0 -0.0816,0.0261 8.507657,8.507657 0 0 0 -0.0667,0.0221 8.507657,8.507657 0 0 1 0.0667,-0.0221 8.507657,8.507657 0 0 1 0.0816,-0.0261 8.507657,8.507657 0 0 1 0.0817,-0.0252 8.507657,8.507657 0 0 1 0.0819,-0.0245 z m -13.622935,0.0209 a 12.274356,12.153813 0 0 1 0.08167,0.0216 12.274356,12.153813 0 0 0 -0.08167,-0.0216 z m -6.415869,0.0404 a 12.274356,12.153813 0 0 0 -0.190144,0.0539 12.274356,12.153813 0 0 1 0.190144,-0.0539 z m 17.041194,0.0394 a 9.7229981,9.7229981 0 0 0 -0.0593,0.0411 9.7229981,9.7229981 0 0 1 0.0593,-0.0411 z m -7.04873,0.0698 a 13.501755,13.369156 0 0 1 0.0802,0.0458 13.501755,13.369156 0 0 0 -0.0802,-0.0458 z m -10.41453,0.015 a 12.274356,12.153813 0 0 0 -0.07097,0.0225 12.274356,12.153813 0 0 1 0.07097,-0.0225 z m 10.52135,0.0463 a 13.501755,13.369156 0 0 1 0.0798,0.0465 13.501755,13.369156 0 0 1 0.0783,0.0465 13.501755,13.369156 0 0 0 -0.0783,-0.0465 13.501755,13.369156 0 0 0 -0.0798,-0.0465 z m -10.787681,0.0406 a 12.274356,12.153813 0 0 0 -0.194172,0.0677 12.274356,12.153813 0 0 1 0.194172,-0.0677 z m 8.079901,0.047 a 12.274356,12.153813 0 0 1 0.09709,0.0346 12.274356,12.153813 0 0 0 -0.09709,-0.0346 z m -64.172034,0.009 a 8.507657,8.507657 0 0 0 -0.151923,0.0681 8.507657,8.507657 0 0 1 0.151923,-0.0681 z m 75.907794,0 a 8.507657,8.507657 0 0 0 -0.15192,0.0681 8.507657,8.507657 0 0 1 0.15192,-0.0681 z m -8.84164,0.0128 a 13.501755,13.369156 0 0 1 0.0781,0.0472 13.501755,13.369156 0 0 1 0.0833,0.0513 13.501755,13.369156 0 0 0 -0.0833,-0.0513 13.501755,13.369156 0 0 0 -0.0781,-0.0472 z m -14.068259,0.0387 a 13.501755,13.369156 0 0 0 -0.0864,0.053 13.501755,13.369156 0 0 1 0.0864,-0.053 z m -0.499207,0.31881 a 13.501755,13.369156 0 0 0 -0.08926,0.0603 13.501755,13.369156 0 0 1 0.08926,-0.0603 z m -53.284177,0.0218 a 8.507657,8.507657 0 0 0 -0.04652,0.0266 8.507657,8.507657 0 0 1 0.04652,-0.0266 z m 73.686883,0.094 a 9.7229981,9.7229981 0 0 0 -0.0517,0.0456 9.7229981,9.7229981 0 0 1 0.0517,-0.0456 z m -20.672831,0.0698 a 13.501755,13.369156 0 0 0 -0.07004,0.0499 13.501755,13.369156 0 0 1 0.07004,-0.0499 z m 15.687171,0.0116 a 13.501755,13.369156 0 0 1 0.0738,0.0527 13.501755,13.369156 0 0 0 -0.0738,-0.0527 z m -2.24014,0.0667 a 12.274356,12.153813 0 0 1 0.0914,0.047 12.274356,12.153813 0 0 0 -0.0914,-0.047 z m 6.96161,0.0921 a 9.7229981,9.7229981 0 0 0 -0.0517,0.0494 9.7229981,9.7229981 0 0 1 0.0517,-0.0494 z m -18.414191,0.0278 a 12.274356,12.153813 0 0 0 -0.09044,0.0489 12.274356,12.153813 0 0 1 0.09044,-0.0489 z m -55.630195,0.0261 a 8.507657,8.507657 0 0 0 -0.20937,0.14813 8.507657,8.507657 0 0 1 0.20937,-0.14813 z m 75.907576,0 a 8.507657,8.507657 0 0 0 -0.20938,0.14813 8.507657,8.507657 0 0 1 0.20938,-0.14813 z m -22.701251,0.0916 a 13.501755,13.369156 0 0 0 -0.0774,0.0598 13.501755,13.369156 0 0 1 0.0774,-0.0598 z m 2.064952,0.0821 a 12.274356,12.153813 0 0 0 -0.08878,0.052 12.274356,12.153813 0 0 1 0.08878,-0.052 z m 14.653869,0.0655 a 13.501755,13.369156 0 0 1 0.0684,0.0548 13.501755,13.369156 0 0 0 -0.0684,-0.0548 z m 3.81325,0.009 a 9.7229981,9.7229981 0 0 0 -0.0501,0.052 9.7229981,9.7229981 0 0 1 0.0501,-0.052 z m -74.103483,0.0169 a 8.507657,8.507657 0 0 0 -0.112992,0.0878 8.507657,8.507657 0 0 1 0.112992,-0.0878 z m 75.907573,0 a 8.507657,8.507657 0 0 0 -0.11299,0.0878 8.507657,8.507657 0 0 1 0.11299,-0.0878 z m -22.632182,0.0603 a 13.501755,13.369156 0 0 0 -0.08142,0.0665 13.501755,13.369156 0 0 1 0.08142,-0.0665 z m 17.192642,0.0579 a 13.501755,13.369156 0 0 1 0.0662,0.0548 13.501755,13.369156 0 0 0 -0.0662,-0.0548 z m 4.93463,0.30053 a 8.507657,8.507657 0 0 0 -0.12297,0.11227 8.507657,8.507657 0 0 1 0.12297,-0.11227 z m -1.75614,0.0695 a 9.7229981,9.7229981 0 0 0 -0.0553,0.0662 9.7229981,9.7229981 0 0 1 0.0553,-0.0662 z m -4.46746,0.17068 a 12.274356,12.153813 0 0 1 0.0788,0.0589 12.274356,12.153813 0 0 0 -0.0788,-0.0589 z m 4.1114,0.27844 a 9.7229981,9.7229981 0 0 0 -0.0356,0.0482 9.7229981,9.7229981 0 0 1 0.0356,-0.0482 z m -1.73026,0.18587 a 13.501755,13.369156 0 0 1 0.0724,0.075 13.501755,13.369156 0 0 0 -0.0724,-0.075 z m 0.0757,0.0783 a 13.501755,13.369156 0 0 1 0.0722,0.0762 13.501755,13.369156 0 0 1 0.0714,0.0764 13.501755,13.369156 0 0 0 -0.0714,-0.0764 13.501755,13.369156 0 0 0 -0.0722,-0.0762 z m 1.42238,0.0605 a 9.7229981,9.7229981 0 0 0 -0.0513,0.0757 9.7229981,9.7229981 0 0 1 0.0513,-0.0757 z m -3.08712,0.0349 a 12.274356,12.153813 0 0 1 0.0449,0.0396 12.274356,12.153813 0 0 0 -0.0449,-0.0396 z m 1.89405,0.15049 a 13.501755,13.369156 0 0 1 0.061,0.0674 13.501755,13.369156 0 0 0 -0.061,-0.0674 z m -20.257912,0.22456 a 13.501755,13.369156 0 0 0 -0.05554,0.0643 13.501755,13.369156 0 0 1 0.05554,-0.0643 z m 21.097282,0.14694 a 9.7229981,9.7229981 0 0 0 -0.0361,0.0617 9.7229981,9.7229981 0 0 1 0.0361,-0.0617 z m -21.383321,0.20462 a 13.501755,13.369156 0 0 0 -0.0648,0.0793 13.501755,13.369156 0 0 1 0.0648,-0.0793 z m 19.454141,0.0461 a 12.274356,12.153813 0 0 1 0.0703,0.0745 12.274356,12.153813 0 0 0 -0.0703,-0.0745 z m -17.99212,0.12248 a 12.274356,12.153813 0 0 0 -0.06647,0.0726 12.274356,12.153813 0 0 1 0.06647,-0.0726 z m 19.8,0.12226 a 13.501755,13.369156 0 0 1 0.056,0.0731 13.501755,13.369156 0 0 0 -0.056,-0.0731 z m -21.526696,0.0408 a 13.501755,13.369156 0 0 0 -0.06529,0.0852 13.501755,13.369156 0 0 1 0.06529,-0.0852 z m 22.641666,0.17257 a 8.507657,8.507657 0 0 0 -0.0814,0.14552 8.507657,8.507657 0 0 1 0.0814,-0.14552 z m -2.44477,0.0757 a 12.274356,12.153813 0 0 1 0.0657,0.0786 12.274356,12.153813 0 0 0 -0.0657,-0.0786 z m 1.57833,0.042 a 13.501755,13.369156 0 0 1 0.0627,0.0869 13.501755,13.369156 0 0 0 -0.0627,-0.0869 z m -1.38083,0.19773 a 12.274356,12.153813 0 0 1 0.12391,0.16285 12.274356,12.153813 0 0 0 -0.12391,-0.16285 z m 2.07517,0.004 a 8.507657,8.507657 0 0 0 -0.0273,0.0541 8.507657,8.507657 0 0 1 0.0273,-0.0541 z m -22.83347,0.003 a 13.501755,13.369156 0 0 0 -0.05649,0.0826 13.501755,13.369156 0 0 1 0.05649,-0.0826 z m -53.103061,0.0508 a 8.507657,8.507657 0 0 0 -0.05863,0.11773 8.507657,8.507657 0 0 1 0.05863,-0.11773 z m 74.537891,0.0655 a 9.7229981,9.7229981 0 0 0 -0.0306,0.0779 9.7229981,9.7229981 0 0 1 0.0306,-0.0779 z m -0.43131,0.2051 a 12.274356,12.153813 0 0 1 0.11821,0.16688 12.274356,12.153813 0 0 0 -0.11821,-0.16688 z m -21.2447,0.0404 a 13.501755,13.369156 0 0 0 -0.05174,0.081 13.501755,13.369156 0 0 1 0.05174,-0.081 z m 21.57726,0.0131 a 9.7229981,9.7229981 0 0 0 -0.0228,0.0627 9.7229981,9.7229981 0 0 1 0.0228,-0.0627 z m -21.696417,0.17541 a 13.501755,13.369156 0 0 0 -0.04629,0.0753 13.501755,13.369156 0 0 1 0.04629,-0.0753 z m 22.665167,0.70597 a 8.507657,8.507657 0 0 0 -0.0178,0.0548 8.507657,8.507657 0 0 1 0.0178,-0.0548 z m -59.581607,0.53173 a 8.507657,8.507657 0 0 1 0.0159,0.0632 8.507657,8.507657 0 0 0 -0.0159,-0.0632 z m 58.137867,0.18302 a 9.7229981,9.7229981 0 0 0 -0.0164,0.09 9.7229981,9.7229981 0 0 0 -0.0157,0.09 9.7229981,9.7229981 0 0 1 0.0157,-0.09 9.7229981,9.7229981 0 0 1 0.0164,-0.09 z m 16.10686,0.0406 a 13.501755,13.369156 0 0 0 -0.0401,0.0802 13.501755,13.369156 0 0 1 0.0401,-0.0802 z m -74.148826,0.19299 a 8.507657,8.507657 0 0 1 0.01663,0.0838 8.507657,8.507657 0 0 0 -0.01663,-0.0838 z m 57.990936,0.0631 a 9.7229981,9.7229981 0 0 0 -0.01,0.0639 9.7229981,9.7229981 0 0 1 0.01,-0.0639 z m -0.0268,0.1835 a 9.7229981,9.7229981 0 0 0 -0.008,0.0613 9.7229981,9.7229981 0 0 0 -0.0114,0.0909 9.7229981,9.7229981 0 0 1 0.0114,-0.0909 9.7229981,9.7229981 0 0 1 0.008,-0.0613 z m 17.27428,0.0919 a 12.274356,12.153813 0 0 0 -0.042,0.0931 12.274356,12.153813 0 0 1 0.042,-0.0931 z m -75.127301,0.35156 a 8.507657,8.507657 0 0 1 0.01235,0.10943 8.507657,8.507657 0 0 0 -0.01235,-0.10943 z m 73.631811,0.0627 a 13.501755,13.369156 0 0 0 -0.0301,0.0824 13.501755,13.369156 0 0 0 -0.034,0.095 13.501755,13.369156 0 0 1 0.034,-0.095 13.501755,13.369156 0 0 1 0.0301,-0.0824 z m -14.63677,0.0959 a 8.507657,8.507657 0 0 0 -0.0121,0.13127 8.507657,8.507657 0 0 1 0.0121,-0.13127 z m 15.8842,0.0976 a 12.274356,12.153813 0 0 0 -0.0285,0.0712 12.274356,12.153813 0 0 1 0.0285,-0.0712 z m -17.1238,0.1581 a 9.7229981,9.7229981 0 0 0 -0.005,0.0788 9.7229981,9.7229981 0 0 0 -0.004,0.0857 9.7229981,9.7229981 0 0 1 0.004,-0.0857 9.7229981,9.7229981 0 0 1 0.005,-0.0788 z m 17.00654,0.14385 a 12.274356,12.153813 0 0 0 -0.0278,0.075 12.274356,12.153813 0 0 0 -0.0337,0.0933 12.274356,12.153813 0 0 1 0.0337,-0.0933 12.274356,12.153813 0 0 1 0.0278,-0.075 z m -17.01934,0.13008 a 9.7229981,9.7229981 0 0 0 -0.002,0.0788 9.7229981,9.7229981 0 0 0 -0.002,0.0859 9.7229981,9.7229981 0 0 1 0.002,-0.0859 9.7229981,9.7229981 0 0 1 0.002,-0.0788 z m 1.21561,0.0109 a 8.507657,8.507657 0 0 0 -0.002,0.0567 8.507657,8.507657 0 0 1 0.002,-0.0567 z m 15.62783,0.36342 a 12.274356,12.153813 0 0 0 -0.0299,0.0976 12.274356,12.153813 0 0 1 0.0299,-0.0976 z m -16.8482,0.0553 a 9.7229981,9.7229981 0 0 0 9e-4,0.0503 9.7229981,9.7229981 0 0 1 -9e-4,-0.0503 z m -57.681619,0.14219 a 8.507657,8.507657 0 0 1 -0.0018,0.0555 8.507657,8.507657 0 0 0 0.0018,-0.0555 z m 73.152549,0.17068 a 13.501755,13.369156 0 0 0 -0.0211,0.0862 13.501755,13.369156 0 0 1 0.0211,-0.0862 z m -36.829328,0.0499 a 12.274356,12.153813 0 0 0 -0.195829,0.75913 12.274356,12.153813 0 0 0 -0.183026,1.19901 12.274356,12.153813 0 0 0 -3.87e-4,0.002 12.274356,12.153813 0 0 0 -0.06148,1.21324 12.274356,12.153813 0 0 0 0.03087,0.85979 12.274356,12.153813 0 0 0 0.147885,1.20611 12.274356,12.153813 0 0 0 0.268718,1.18524 12.274356,12.153813 0 0 0 0.386686,1.15295 12.274356,12.153813 0 0 0 0.206759,0.45743 12.274356,12.153813 0 0 0 0.294587,0.6516 12.274356,12.153813 0 0 0 0.326632,0.56378 12.274356,12.153813 0 0 0 0.283667,0.48994 12.274356,12.153813 0 0 0 0.713794,0.98822 12.274356,12.153813 0 0 0 0.305986,0.34491 12.274356,12.153813 0 0 0 0.503712,0.56781 12.274356,12.153813 0 0 0 0.897777,0.82798 12.274356,12.153813 0 0 0 0.976813,0.73539 12.274356,12.153813 0 0 0 1.045882,0.63499 12.274356,12.153813 0 0 0 1.104769,0.52841 12.274356,12.153813 0 0 0 1.15247,0.41659 12.274356,12.153813 0 0 0 1.188797,0.30053 12.274356,12.153813 0 0 0 1.213241,0.18159 12.274356,12.153813 0 0 0 0.618135,0.0306 v -4.22393 -1.82306 -0.0299 a 6.1371878,6.0769154 0 0 1 -0.0055,-2.6e-4 6.1371878,6.0769154 0 0 1 -0.606501,-0.0909 6.1371878,6.0769154 0 0 1 -0.594408,-0.15026 6.1371878,6.0769154 0 0 1 -0.576343,-0.20818 6.1371878,6.0769154 0 0 1 -0.552392,-0.26421 6.1371878,6.0769154 0 0 1 -0.52294,-0.31761 6.1371878,6.0769154 0 0 1 -0.204618,-0.15406 6.1371878,6.0769154 0 0 1 -0.283672,-0.21364 6.1371878,6.0769154 0 0 1 -0.448876,-0.41399 6.1371878,6.0769154 0 0 1 -0.404974,-0.45624 6.1371878,6.0769154 0 0 1 -0.356778,-0.49422 6.1371878,6.0769154 0 0 1 -0.305266,-0.52675 6.1371878,6.0769154 0 0 1 -0.250673,-0.55452 6.1371878,6.0769154 0 0 1 -0.193461,-0.57659 6.1371878,6.0769154 0 0 1 -0.134363,-0.59249 6.1371878,6.0769154 0 0 1 -0.07382,-0.60318 6.1371878,6.0769154 0 0 1 -0.01332,-0.36746 l -2.250119,-1.27781 z m 38.064878,0.0719 a 12.274356,12.153813 0 0 0 -0.0259,0.0988 12.274356,12.153813 0 0 1 0.0259,-0.0988 z m -16.6901,0.0285 a 9.7229981,9.7229981 0 0 0 0.004,0.0582 9.7229981,9.7229981 0 0 1 -0.004,-0.0582 z m -57.724586,0.14504 a 8.507657,8.507657 0 0 1 -0.01212,0.13127 8.507657,8.507657 0 0 0 0.01212,-0.13127 z m 57.740966,0.0608 a 9.7229981,9.7229981 0 0 0 0.01,0.0909 9.7229981,9.7229981 0 0 1 -0.01,-0.0909 z m 15.34013,0.0643 a 13.501755,13.369156 0 0 0 -0.019,0.089 13.501755,13.369156 0 0 1 0.019,-0.089 z m -14.11051,0.0553 a 8.507657,8.507657 0 0 0 0.0124,0.10966 8.507657,8.507657 0 0 1 -0.0124,-0.10966 z m -1.16482,0.41137 a 9.7229981,9.7229981 0 0 0 0.01,0.0883 9.7229981,9.7229981 0 0 1 -0.01,-0.0883 z m 16.4043,0.14219 a 12.274356,12.153813 0 0 0 -0.0147,0.0802 12.274356,12.153813 0 0 1 0.0147,-0.0802 z m -15.13266,0.16237 a 8.507657,8.507657 0 0 0 0.0166,0.0838 8.507657,8.507657 0 0 1 -0.0166,-0.0838 z m 13.84109,0.12866 a 13.501755,13.369156 0 0 0 -0.009,0.0629 13.501755,13.369156 0 0 1 0.009,-0.0629 z m -15.05149,0.006 a 9.7229981,9.7229981 0 0 0 0.0164,0.0831 9.7229981,9.7229981 0 0 0 0.0185,0.0897 9.7229981,9.7229981 0 0 0 0.0192,0.089 9.7229981,9.7229981 0 0 1 -0.0192,-0.089 9.7229981,9.7229981 0 0 1 -0.0185,-0.0897 9.7229981,9.7229981 0 0 1 -0.0164,-0.0831 z m -58.022967,0.0199 a 8.507657,8.507657 0 0 1 -0.01328,0.0596 8.507657,8.507657 0 0 0 0.01328,-0.0596 z m 74.285557,0.1721 a 12.274356,12.153813 0 0 0 -0.0264,0.19607 12.274356,12.153813 0 0 1 0.0264,-0.19607 z m -16.20822,0.071 a 9.7229981,9.7229981 0 0 0 0.019,0.0836 9.7229981,9.7229981 0 0 1 -0.019,-0.0836 z m 1.25264,0.0396 a 8.507657,8.507657 0 0 0 0.0159,0.0632 8.507657,8.507657 0 0 1 -0.0159,-0.0632 z m -1.11211,0.5493 a 9.7229981,9.7229981 0 0 0 0.0249,0.0881 9.7229981,9.7229981 0 0 0 0.023,0.0786 9.7229981,9.7229981 0 0 1 -0.023,-0.0786 9.7229981,9.7229981 0 0 1 -0.0249,-0.0881 z m -41.707458,0.27559 a 6.1371878,6.0769154 0 0 1 0.0064,0.0529 6.1371878,6.0769154 0 0 0 -0.0064,-0.0529 z m -32.820942,0.0427 a 8.507657,8.507657 0 0 0 0.05412,0.14813 8.507657,8.507657 0 0 1 -0.05412,-0.14813 z m 90.49521,0.0264 a 12.274356,12.153813 0 0 0 -0.01,0.19892 12.274356,12.153813 0 0 1 0.01,-0.19892 z m -57.657889,0.0719 a 6.1371878,6.0769154 0 0 1 0.0055,0.0553 6.1371878,6.0769154 0 0 0 -0.0055,-0.0553 z m 56.419959,0.17186 a 13.501755,13.369156 0 0 0 -0.003,0.0741 13.501755,13.369156 0 0 1 0.003,-0.0741 z m -89.131705,0.0574 a 8.507657,8.507657 0 0 0 0.03087,0.0736 8.507657,8.507657 0 0 1 -0.03087,-0.0736 z m 90.352305,0.1308 a 12.274356,12.153813 0 0 0 -0.001,0.0726 12.274356,12.153813 0 0 1 0.001,-0.0726 z m -14.37827,0.0254 a 8.507657,8.507657 0 0 0 0.0681,0.15193 8.507657,8.507657 0 0 1 -0.0681,-0.15193 z m -43.233325,0.0268 a 6.1371878,6.0769154 0 0 1 0.0018,0.0501 6.1371878,6.0769154 0 0 0 -0.0018,-0.0501 z m 41.968565,0.0935 a 9.7229981,9.7229981 0 0 0 0.0292,0.0741 9.7229981,9.7229981 0 0 1 -0.0292,-0.0741 z m 14.41246,0.12273 a 13.501755,13.369156 0 0 0 5.1e-4,0.10682 13.501755,13.369156 0 0 1 -5.1e-4,-0.10682 z m 1.22748,0 a 12.274356,12.153813 0 0 0 5.1e-4,0.09 12.274356,12.153813 0 0 1 -5.1e-4,-0.09 z m -15.56658,0.0603 a 9.7229981,9.7229981 0 0 0 0.0297,0.0712 9.7229981,9.7229981 0 0 0 0.033,0.0771 9.7229981,9.7229981 0 0 1 -0.033,-0.0771 9.7229981,9.7229981 0 0 1 -0.0297,-0.0712 z m -42.039079,0.048 a 6.1371878,6.0769154 0 0 1 -0.0014,0.0669 6.1371878,6.0769154 0 0 1 -0.0018,0.0574 6.1371878,6.0769154 0 0 0 0.0018,-0.0574 6.1371878,6.0769154 0 0 0 0.0014,-0.0669 z m 82.152529,0.0878 a 12.274356,12.153813 0 0 1 -0.001,0.0705 12.274356,12.153813 0 0 0 0.001,-0.0705 z m -82.159886,0.1232 a 6.1371878,6.0769154 0 0 1 -0.0041,0.0719 6.1371878,6.0769154 0 0 1 -0.0046,0.0641 6.1371878,6.0769154 0 0 0 0.0046,-0.0641 6.1371878,6.0769154 0 0 0 0.0041,-0.0719 z m 57.617526,0.007 a 12.274356,12.153813 0 0 0 0.002,0.061 12.274356,12.153813 0 0 1 -0.002,-0.061 z m -75.023803,0.10658 a 8.507657,8.507657 0 0 1 -0.08142,0.14552 8.507657,8.507657 0 0 0 0.08142,-0.14552 z m 99.557373,0.0691 a 12.274356,12.153813 0 0 1 -0.01,0.19299 12.274356,12.153813 0 0 0 0.01,-0.19299 z m -24.52668,0.0252 a 12.274356,12.153813 0 0 0 0.003,0.0688 12.274356,12.153813 0 0 1 -0.003,-0.0688 z m -15.34892,0.0463 a 9.7229981,9.7229981 0 0 0 0.0278,0.0572 9.7229981,9.7229981 0 0 0 0.0406,0.0819 9.7229981,9.7229981 0 0 1 -0.0406,-0.0819 9.7229981,9.7229981 0 0 1 -0.0278,-0.0572 z m 15.3539,0.0539 a 12.274356,12.153813 0 0 0 0.005,0.0843 12.274356,12.153813 0 0 1 -0.005,-0.0843 z m 0.005,0.0871 a 12.274356,12.153813 0 0 0 0.006,0.0888 12.274356,12.153813 0 0 1 -0.006,-0.0888 z m -57.678781,0.0836 a 6.1371878,6.0769154 0 0 1 -0.0076,0.0544 6.1371878,6.0769154 0 0 0 0.0076,-0.0544 z m 57.688281,0.062 a 12.274356,12.153813 0 0 0 0.008,0.0783 12.274356,12.153813 0 0 1 -0.008,-0.0783 z m -15.18893,0.0674 a 9.7229981,9.7229981 0 0 0 0.0375,0.0695 9.7229981,9.7229981 0 0 1 -0.0375,-0.0695 z m 39.66956,0.0202 a 12.274356,12.153813 0 0 1 -0.0142,0.16475 12.274356,12.153813 0 0 0 0.0142,-0.16475 z m -38.24814,0.003 a 8.507657,8.507657 0 0 0 0.0461,0.0655 8.507657,8.507657 0 0 1 -0.0461,-0.0655 z m -43.953287,0.0603 a 6.1371878,6.0769154 0 0 1 -0.0088,0.0503 6.1371878,6.0769154 0 0 0 0.0088,-0.0503 z m 44.005987,0.0147 a 8.507657,8.507657 0 0 0 0.0463,0.0643 8.507657,8.507657 0 0 1 -0.0463,-0.0643 z m 13.73523,0.037 a 12.274356,12.153813 0 0 0 0.0104,0.0931 12.274356,12.153813 0 0 1 -0.0104,-0.0931 z m -1.23581,5.2e-4 a 13.501755,13.369156 0 0 0 0.008,0.0957 13.501755,13.369156 0 0 0 0.008,0.0876 13.501755,13.369156 0 0 1 -0.008,-0.0876 13.501755,13.369156 0 0 1 -0.008,-0.0957 z m -56.515614,0.007 a 6.1371878,6.0769154 0 0 1 -0.01259,0.0667 6.1371878,6.0769154 0 0 1 -0.01401,0.0708 6.1371878,6.0769154 0 0 0 0.01401,-0.0708 6.1371878,6.0769154 0 0 0 0.01259,-0.0667 z m -31.802112,0.0945 a 8.507657,8.507657 0 0 0 0.148124,0.20936 8.507657,8.507657 0 0 1 -0.148124,-0.20936 z m 74.489946,0.0259 a 9.7229981,9.7229981 0 0 0 0.032,0.0556 9.7229981,9.7229981 0 0 0 0.0463,0.0788 9.7229981,9.7229981 0 0 1 -0.0463,-0.0788 9.7229981,9.7229981 0 0 1 -0.032,-0.0556 z m 13.84748,0.0933 a 13.501755,13.369156 0 0 0 0.007,0.0729 13.501755,13.369156 0 0 1 -0.007,-0.0729 z m -56.586826,0.0387 a 6.1371878,6.0769154 0 0 1 -0.01259,0.0551 6.1371878,6.0769154 0 0 0 0.01259,-0.0551 z m 57.839946,0.0442 a 12.274356,12.153813 0 0 0 0.0104,0.0748 12.274356,12.153813 0 0 1 -0.0104,-0.0748 z m -75.705551,0.004 a 8.507657,8.507657 0 0 1 -0.05151,0.0684 8.507657,8.507657 0 0 0 0.05151,-0.0684 z m -13.620081,0.15881 a 8.507657,8.507657 0 0 0 0.08783,0.11299 8.507657,8.507657 0 0 1 -0.08783,-0.11299 z m 74.478072,0.0779 a 9.7229981,9.7229981 0 0 0 0.0494,0.0757 9.7229981,9.7229981 0 0 1 -0.0494,-0.0757 z m 13.64216,0.0969 a 13.501755,13.369156 0 0 0 0.008,0.0643 13.501755,13.369156 0 0 1 -0.008,-0.0643 z m -56.744217,0.0356 a 6.1371878,6.0769154 0 0 1 -0.01709,0.0563 6.1371878,6.0769154 0 0 0 0.01709,-0.0563 z m -0.02967,0.0926 a 6.1371878,6.0769154 0 0 1 -0.0204,0.0582 6.1371878,6.0769154 0 0 1 -0.02467,0.0676 6.1371878,6.0769154 0 0 1 -0.0209,0.0555 6.1371878,6.0769154 0 0 0 0.0209,-0.0555 6.1371878,6.0769154 0 0 0 0.02467,-0.0676 6.1371878,6.0769154 0 0 0 0.0204,-0.0582 z m 82.286877,0.0807 a 12.274356,12.153813 0 0 1 -0.0116,0.0698 12.274356,12.153813 0 0 0 0.0116,-0.0698 z m -38.94982,9e-4 a 9.7229981,9.7229981 0 0 0 0.0437,0.062 9.7229981,9.7229981 0 0 1 -0.0437,-0.062 z m 13.46769,0.0135 a 13.501755,13.369156 0 0 0 0.0102,0.0677 13.501755,13.369156 0 0 1 -0.0102,-0.0677 z m -87.732356,0.10682 a 8.507657,8.507657 0 0 0 0.11228,0.12296 8.507657,8.507657 0 0 1 -0.11228,-0.12296 z m 87.763216,0.0923 a 13.501755,13.369156 0 0 0 0.0114,0.0696 13.501755,13.369156 0 0 1 -0.0114,-0.0696 z m -13.13845,0.27109 a 9.7229981,9.7229981 0 0 0 0.0427,0.0506 9.7229981,9.7229981 0 0 1 -0.0427,-0.0506 z m 13.20848,0.0838 a 13.501755,13.369156 0 0 0 0.024,0.10422 13.501755,13.369156 0 0 1 -0.024,-0.10422 z m -87.107105,0.27061 a 8.507657,8.507657 0 0 0 0.06457,0.056 8.507657,8.507657 0 0 1 -0.06457,-0.056 z m 112.260705,0.25092 a 12.274356,12.153813 0 0 1 -0.0259,0.0987 12.274356,12.153813 0 0 0 0.0259,-0.0987 z m -23.72079,0.24806 a 12.274356,12.153813 0 0 0 0.028,0.098 12.274356,12.153813 0 0 1 -0.028,-0.098 z m 23.58311,0.2431 a 12.274356,12.153813 0 0 1 -0.0299,0.0976 12.274356,12.153813 0 0 0 0.0299,-0.0976 z m -23.4611,0.1645 a 12.274356,12.153813 0 0 0 0.0556,0.16996 12.274356,12.153813 0 0 1 -0.0556,-0.16996 z m -11.37139,0.08 a 8.507657,8.507657 0 0 0 0.14551,0.0814 8.507657,8.507657 0 0 1 -0.14551,-0.0814 z m -75.458683,0.23927 a 8.507657,8.507657 0 0 0 0.07691,0.0375 8.507657,8.507657 0 0 1 -0.07691,-0.0375 z m 73.780413,0.10231 a 9.7229981,9.7229981 0 0 0 0.061,0.0461 9.7229981,9.7229981 0 0 1 -0.061,-0.0461 z m 36.2862,0.0836 a 12.274356,12.153813 0 0 1 -0.0264,0.071 12.274356,12.153813 0 0 0 0.0264,-0.071 z M 36.151921,157.6365 a 8.507657,8.507657 0 0 0 0.120112,0.0425 8.507657,8.507657 0 0 1 -0.120112,-0.0425 z m 76.163229,0.0881 a 8.507657,8.507657 0 0 0 0.0548,0.0178 8.507657,8.507657 0 0 1 -0.0548,-0.0178 z m -75.752803,0.048 a 8.507657,8.507657 0 0 0 0.0819,0.0247 8.507657,8.507657 0 0 1 -0.0819,-0.0247 z m 75.907793,2.5e-4 a 8.507657,8.507657 0 0 0 0.0814,0.0247 8.507657,8.507657 0 0 1 -0.0814,-0.0247 z m 9.95093,0.0216 a 12.274356,12.153813 0 0 0 0.0411,0.0935 12.274356,12.153813 0 0 1 -0.0411,-0.0935 z m -9.75936,0.0347 a 8.507657,8.507657 0 0 0 0.0496,0.014 8.507657,8.507657 0 0 1 -0.0496,-0.014 z m -75.756349,0.0413 a 8.507657,8.507657 0 0 0 0.0686,0.0176 8.507657,8.507657 0 0 0 0.08308,0.0206 8.507657,8.507657 0 0 0 0.08308,0.0197 8.507657,8.507657 0 0 0 0.07738,0.0176 8.507657,8.507657 0 0 1 -0.07738,-0.0176 8.507657,8.507657 0 0 1 -0.08308,-0.0197 8.507657,8.507657 0 0 1 -0.08308,-0.0206 8.507657,8.507657 0 0 1 -0.0686,-0.0176 z m 80.086619,0.0235 a 8.507657,8.507657 0 0 1 -0.0629,0.0159 8.507657,8.507657 0 0 0 0.0629,-0.0159 z m -75.911601,9e-4 a 8.507657,8.507657 0 0 1 -0.07905,0.0199 8.507657,8.507657 0 0 1 -0.08308,0.0202 8.507657,8.507657 0 0 1 -0.08332,0.0192 8.507657,8.507657 0 0 1 -0.06314,0.014 8.507657,8.507657 0 0 0 0.06314,-0.014 8.507657,8.507657 0 0 0 0.08332,-0.0192 8.507657,8.507657 0 0 0 0.08308,-0.0202 8.507657,8.507657 0 0 0 0.07905,-0.0199 z m 68.775051,0.0171 a 9.7229981,9.7229981 0 0 0 0.0781,0.0475 9.7229981,9.7229981 0 0 1 -0.0781,-0.0475 z m 6.97038,0.023 a 8.507657,8.507657 0 0 1 -0.0714,0.0166 8.507657,8.507657 0 0 0 0.0714,-0.0166 z m -79.587879,0.0154 a 8.507657,8.507657 0 0 0 0.06528,0.014 8.507657,8.507657 0 0 1 -0.06528,-0.014 z m 2.910024,0.12581 a 8.507657,8.507657 0 0 1 -0.14646,0.0176 8.507657,8.507657 0 0 0 0.14646,-0.0176 z m 75.841105,0.008 a 8.507657,8.507657 0 0 1 -0.07,0.008 8.507657,8.507657 0 0 0 0.07,-0.008 z m -77.784525,0.0197 a 8.507657,8.507657 0 0 0 0.13127,0.0121 8.507657,8.507657 0 0 1 -0.13127,-0.0121 z m 75.907815,0 a 8.507657,8.507657 0 0 0 0.13529,0.0123 8.507657,8.507657 0 0 1 -0.13529,-0.0123 z m -74.460518,0.0216 a 8.507657,8.507657 0 0 1 -0.15738,0.009 8.507657,8.507657 0 0 0 0.15738,-0.009 z m 75.907808,0 a 8.507657,8.507657 0 0 1 -0.15739,0.009 8.507657,8.507657 0 0 0 0.15739,-0.009 z m -76.099373,0.0112 a 8.507657,8.507657 0 0 1 -0.150021,0.006 8.507657,8.507657 0 0 0 0.150021,-0.006 z m 75.907803,0 a 8.507657,8.507657 0 0 1 -0.15002,0.006 8.507657,8.507657 0 0 0 0.15002,-0.006 z m -76.62184,0.004 a 8.507657,8.507657 0 0 0 0.05555,0.002 8.507657,8.507657 0 0 1 -0.05555,-0.002 z m 75.90472,0 a 8.507657,8.507657 0 0 0 0.0586,0.002 8.507657,8.507657 0 0 1 -0.0586,-0.002 z m -4.35068,0.0309 a 9.7229981,9.7229981 0 0 0 0.0805,0.0434 9.7229981,9.7229981 0 0 1 -0.0805,-0.0434 z m 34.68532,0.13507 a 12.274356,12.153813 0 0 1 -0.0342,0.0748 12.274356,12.153813 0 0 0 0.0342,-0.0748 z m -34.27323,0.0774 a 9.7229981,9.7229981 0 0 0 0.0729,0.0351 9.7229981,9.7229981 0 0 1 -0.0729,-0.0351 z m 34.19157,0.0995 a 12.274356,12.153813 0 0 1 -0.0375,0.0788 12.274356,12.153813 0 0 0 0.0375,-0.0788 z m -46.150717,0.0726 a 6.1371878,6.0769154 0 0 1 -0.254702,0.14456 6.1371878,6.0769154 0 0 1 -0.559742,0.2483 6.1371878,6.0769154 0 0 1 -0.582291,0.19157 6.1371878,6.0769154 0 0 1 -0.59843,0.13292 6.1371878,6.0769154 0 0 1 -0.435116,0.0522 v 0.0361 0.26041 1.56266 4.2327 a 12.274356,12.153813 0 0 0 0.260167,-0.009 12.274356,12.153813 0 0 0 1.217991,-0.14622 12.274356,12.153813 0 0 0 1.197098,-0.26611 12.274356,12.153813 0 0 0 1.164352,-0.38313 12.274356,12.153813 0 0 0 1.11995,-0.49636 12.274356,12.153813 0 0 0 1.06417,-0.60437 12.274356,12.153813 0 0 0 0.99794,-0.70667 12.274356,12.153813 0 0 0 0.92174,-0.80187 12.274356,12.153813 0 0 0 0.19442,-0.20652 l -1.07795,-0.61221 -3.21078,-1.82307 z m 12.422027,0.0382 a 9.7229981,9.7229981 0 0 0 0.081,0.0337 9.7229981,9.7229981 0 0 1 -0.081,-0.0337 z m 33.59932,0.15526 a 12.274356,12.153813 0 0 1 -0.0441,0.0873 12.274356,12.153813 0 0 0 0.0441,-0.0873 z m -0.0472,0.0938 a 12.274356,12.153813 0 0 1 -0.0458,0.0881 12.274356,12.153813 0 0 0 0.0458,-0.0881 z m -27.07804,0.13554 a 9.7229981,9.7229981 0 0 1 -0.0869,0.0287 9.7229981,9.7229981 0 0 0 0.0869,-0.0287 z m -4.91374,0.11845 a 9.7229981,9.7229981 0 0 0 0.0878,0.0221 9.7229981,9.7229981 0 0 0 0.0603,0.0147 9.7229981,9.7229981 0 0 1 -0.0603,-0.0147 9.7229981,9.7229981 0 0 1 -0.0878,-0.0221 z m 4.32717,0.0347 a 9.7229981,9.7229981 0 0 1 -0.0731,0.0159 9.7229981,9.7229981 0 0 0 0.0731,-0.0159 z m -3.91863,0.0584 a 9.7229981,9.7229981 0 0 0 0.0534,0.0102 9.7229981,9.7229981 0 0 1 -0.0534,-0.0102 z m 0.27464,0.0482 a 9.7229981,9.7229981 0 0 0 0.057,0.009 9.7229981,9.7229981 0 0 1 -0.057,-0.009 z m 0.0681,0.0107 a 9.7229981,9.7229981 0 0 0 0.0691,0.0104 9.7229981,9.7229981 0 0 1 -0.0691,-0.0104 z m 2.70636,0.0342 a 9.7229981,9.7229981 0 0 1 -0.0888,0.0109 9.7229981,9.7229981 0 0 1 -0.0826,0.009 9.7229981,9.7229981 0 0 0 0.0826,-0.009 9.7229981,9.7229981 0 0 0 0.0888,-0.0109 z m -2.41368,0.006 a 9.7229981,9.7229981 0 0 0 0.0612,0.007 9.7229981,9.7229981 0 0 1 -0.0612,-0.007 z m 0.69955,0.0601 a 9.7229981,9.7229981 0 0 0 0.0508,0.002 9.7229981,9.7229981 0 0 1 -0.0508,-0.002 z m 0.84578,0.005 a 9.7229981,9.7229981 0 0 1 -0.0812,0.003 9.7229981,9.7229981 0 0 0 0.0812,-0.003 z m -0.27179,0.006 a 9.7229981,9.7229981 0 0 1 -0.043,5.2e-4 h -0.0484 a 9.7229981,9.7229981 0 0 0 0.0914,-5.2e-4 z m -45.365462,0.25115 a 13.501755,13.369156 0 0 1 -0.04106,0.0821 13.501755,13.369156 0 0 0 0.04106,-0.0821 z m 76.016052,0 a 13.501755,13.369156 0 0 1 -0.0411,0.0821 13.501755,13.369156 0 0 0 0.0411,-0.0821 z m -22.29961,0.1042 a 12.274356,12.153813 0 0 0 0.0458,0.0767 12.274356,12.153813 0 0 1 -0.0458,-0.0767 z m -1.40457,0.0368 a 13.501755,13.369156 0 0 0 0.0446,0.079 13.501755,13.369156 0 0 1 -0.0446,-0.079 z m -52.65156,0.45482 a 13.501755,13.369156 0 0 1 -0.04629,0.0753 13.501755,13.369156 0 0 0 0.04629,-0.0753 z m -0.113704,0.18278 a 13.501755,13.369156 0 0 1 -0.05175,0.081 13.501755,13.369156 0 0 0 0.05175,-0.081 z m 75.888094,0.19775 a 13.501755,13.369156 0 0 1 -0.0396,0.0598 13.501755,13.369156 0 0 0 0.0396,-0.0598 z m -0.0484,0.0731 a 13.501755,13.369156 0 0 1 -0.0563,0.0833 13.501755,13.369156 0 0 1 -0.0605,0.0885 13.501755,13.369156 0 0 0 0.0605,-0.0885 13.501755,13.369156 0 0 0 0.0563,-0.0833 z m -77.697403,0.22267 a 12.274356,12.153813 0 0 1 -0.113465,0.13791 12.274356,12.153813 0 0 0 0.113465,-0.13791 z m 76.016053,0 a 12.274356,12.153813 0 0 1 -0.11347,0.13791 12.274356,12.153813 0 0 0 0.11347,-0.13791 z m -19.05653,0.11325 a 12.274356,12.153813 0 0 0 0.0653,0.0731 12.274356,12.153813 0 0 0 0.0582,0.0643 12.274356,12.153813 0 0 1 -0.0582,-0.0643 12.274356,12.153813 0 0 1 -0.0653,-0.0731 z m -1.51044,0.0349 a 13.501755,13.369156 0 0 0 0.0646,0.0857 13.501755,13.369156 0 0 1 -0.0646,-0.0857 z m -54.25792,0.2953 a 13.501755,13.369156 0 0 1 -0.04629,0.0627 13.501755,13.369156 0 0 1 -0.05697,0.0762 13.501755,13.369156 0 0 0 0.05697,-0.0762 13.501755,13.369156 0 0 0 0.04629,-0.0627 z m 56.217,0.18089 a 12.274356,12.153813 0 0 0 0.056,0.0622 12.274356,12.153813 0 0 0 0.061,0.0669 12.274356,12.153813 0 0 1 -0.061,-0.0669 12.274356,12.153813 0 0 1 -0.056,-0.0622 z m -56.459361,0.13839 a 13.501755,13.369156 0 0 1 -0.06124,0.0776 13.501755,13.369156 0 0 0 0.06124,-0.0776 z m 56.683211,0.1054 a 12.274356,12.153813 0 0 0 0.0722,0.0729 12.274356,12.153813 0 0 1 -0.0722,-0.0729 z m -56.926287,0.19417 a 13.501755,13.369156 0 0 1 -0.05555,0.0643 13.501755,13.369156 0 0 0 0.05555,-0.0643 z m 76.016057,0 a 13.501755,13.369156 0 0 1 -0.0556,0.0643 13.501755,13.369156 0 0 0 0.0556,-0.0643 z m -1.79863,0.1194 a 12.274356,12.153813 0 0 1 -0.0748,0.0703 12.274356,12.153813 0 0 0 0.0748,-0.0703 z m -18.49014,0.18539 a 13.501755,13.369156 0 0 0 0.0648,0.0729 13.501755,13.369156 0 0 1 -0.0648,-0.0729 z m 1.79221,0.0665 a 12.274356,12.153813 0 0 0 0.0769,0.0679 12.274356,12.153813 0 0 1 -0.0769,-0.0679 z m -1.6486,0.0933 a 13.501755,13.369156 0 0 0 0.0627,0.0684 13.501755,13.369156 0 0 1 -0.0627,-0.0684 z m 0.26967,0.28343 a 13.501755,13.369156 0 0 0 0.057,0.0567 13.501755,13.369156 0 0 0 0.0769,0.0753 13.501755,13.369156 0 0 1 -0.0769,-0.0753 13.501755,13.369156 0 0 1 -0.057,-0.0567 z m 17.1461,0.16878 a 12.274356,12.153813 0 0 1 -0.0814,0.0624 12.274356,12.153813 0 0 0 0.0814,-0.0624 z m -14.98025,0.0992 a 12.274356,12.153813 0 0 0 0.0821,0.0612 12.274356,12.153813 0 0 1 -0.0821,-0.0612 z m -1.62131,0.24663 a 13.501755,13.369156 0 0 0 0.0517,0.0461 13.501755,13.369156 0 0 1 -0.0517,-0.0461 z m 15.76456,0.24711 a 12.274356,12.153813 0 0 1 -0.0864,0.0556 12.274356,12.153813 0 0 0 0.0864,-0.0556 z m -15.41632,0.0537 a 13.501755,13.369156 0 0 0 0.0662,0.0548 13.501755,13.369156 0 0 1 -0.0662,-0.0548 z m 17.32865,0.0427 a 13.501755,13.369156 0 0 1 -0.0703,0.0615 13.501755,13.369156 0 0 0 0.0703,-0.0615 z m -17.15299,0.10112 a 13.501755,13.369156 0 0 0 0.0684,0.0548 13.501755,13.369156 0 0 1 -0.0684,-0.0548 z m -61.1362,0.0275 a 12.274356,12.153813 0 0 1 -0.157383,0.0928 12.274356,12.153813 0 0 0 0.157383,-0.0928 z m 61.21643,0.0368 a 13.501755,13.369156 0 0 0 0.0788,0.0619 13.501755,13.369156 0 0 0 0.0722,0.056 13.501755,13.369156 0 0 1 -0.0722,-0.056 13.501755,13.369156 0 0 1 -0.0788,-0.0619 z m -59.231451,0.0783 a 13.501755,13.369156 0 0 1 -0.07738,0.0598 13.501755,13.369156 0 0 0 0.07738,-0.0598 z m 76.016061,0 a 13.501755,13.369156 0 0 1 -0.0774,0.0598 13.501755,13.369156 0 0 0 0.0774,-0.0598 z m -78.426877,0.12866 a 12.274356,12.153813 0 0 1 -0.09044,0.0489 12.274356,12.153813 0 0 0 0.09044,-0.0489 z m 62.158827,0.18278 a 13.501755,13.369156 0 0 0 0.0738,0.0527 13.501755,13.369156 0 0 1 -0.0738,-0.0527 z m -60.184783,0.0145 a 13.501755,13.369156 0 0 1 -0.07003,0.0498 13.501755,13.369156 0 0 0 0.07003,-0.0498 z m 76.016043,0 a 13.501755,13.369156 0 0 1 -0.0703,0.0498 13.501755,13.369156 0 0 0 0.0703,-0.0498 z m -76.266953,0.17519 a 13.501755,13.369156 0 0 1 -0.08926,0.0603 13.501755,13.369156 0 0 0 0.08926,-0.0603 z m 76.016053,0 a 13.501755,13.369156 0 0 1 -0.0893,0.0603 13.501755,13.369156 0 0 0 0.0893,-0.0603 z m -0.41968,0.27464 a 13.501755,13.369156 0 0 1 -0.0624,0.0389 13.501755,13.369156 0 0 0 0.0624,-0.0389 z m -14.39869,0.0446 a 13.501755,13.369156 0 0 0 0.0833,0.0513 13.501755,13.369156 0 0 0 0.0781,0.0473 13.501755,13.369156 0 0 1 -0.0781,-0.0473 13.501755,13.369156 0 0 1 -0.0833,-0.0513 z m -61.699742,0.007 a 13.501755,13.369156 0 0 1 -0.0864,0.0529 13.501755,13.369156 0 0 0 0.0864,-0.0529 z m -2.98646,0.0933 a 12.274356,12.153813 0 0 1 -0.194175,0.0677 12.274356,12.153813 0 0 0 0.194175,-0.0677 z m 64.875862,0.0152 a 13.501755,13.369156 0 0 0 0.0783,0.0465 13.501755,13.369156 0 0 0 0.0798,0.0465 13.501755,13.369156 0 0 1 -0.0798,-0.0465 13.501755,13.369156 0 0 1 -0.0783,-0.0465 z m 0.18468,0.10848 a 13.501755,13.369156 0 0 0 0.0802,0.0458 13.501755,13.369156 0 0 1 -0.0802,-0.0458 z m -65.450081,0.008 a 12.274356,12.153813 0 0 1 -0.07098,0.0225 12.274356,12.153813 0 0 0 0.07098,-0.0225 z m 78.938191,0.043 a 13.501755,13.369156 0 0 1 -0.0824,0.0461 13.501755,13.369156 0 0 0 0.0824,-0.0461 z m -76.039083,0.0133 a 13.501755,13.369156 0 0 1 -0.07502,0.042 13.501755,13.369156 0 0 1 -0.08593,0.0472 13.501755,13.369156 0 0 0 0.08593,-0.0472 13.501755,13.369156 0 0 0 0.07502,-0.042 z m -3.202001,0.0366 a 12.274356,12.153813 0 0 1 -0.190141,0.0539 12.274356,12.153813 0 0 0 0.190141,-0.0539 z m 79.150884,5.1e-4 a 13.501755,13.369156 0 0 1 -0.0897,0.0494 13.501755,13.369156 0 0 0 0.0897,-0.0494 z m -79.832164,0.17757 a 12.274356,12.153813 0 0 1 -0.187526,0.042 12.274356,12.153813 0 0 0 0.187526,-0.042 z m -1.233659,0.22029 a 12.274356,12.153813 0 0 1 -0.13673,0.0164 12.274356,12.153813 0 0 0 0.13673,-0.0164 z m -0.280343,0.0323 a 12.274356,12.153813 0 0 1 -0.07026,0.007 12.274356,12.153813 0 0 0 0.07026,-0.007 z m -0.456479,0.0387 a 12.274356,12.153813 0 0 1 -0.09495,0.006 12.274356,12.153813 0 0 1 -0.0978,0.005 12.274356,12.153813 0 0 0 0.0978,-0.005 12.274356,12.153813 0 0 0 0.09495,-0.006 z m -0.314287,0.0169 a 12.274356,12.153813 0 0 1 -0.08902,0.003 12.274356,12.153813 0 0 1 -0.094,0.003 12.274356,12.153813 0 0 0 0.094,-0.003 12.274356,12.153813 0 0 0 0.08902,-0.003 z"
       style="opacity:1;fill:#ffffff;fill-opacity:1;stroke:#ffffff;stroke-width:0.12153777;stroke-linecap:round;stroke-linejoin:round;stroke-miterlimit:4;stroke-dasharray:none;stroke-opacity:1;paint-order:fill markers stroke"
       id="path5399" />
  </g>
</svg>
