<?xml version="1.0" encoding="UTF-8" standalone="no"?>
<svg
   xmlns:dc="http://purl.org/dc/elements/1.1/"
   xmlns:cc="http://creativecommons.org/ns#"
   xmlns:rdf="http://www.w3.org/1999/02/22-rdf-syntax-ns#"
   xmlns:svg="http://www.w3.org/2000/svg"
   xmlns="http://www.w3.org/2000/svg"
   xmlns:sodipodi="http://sodipodi.sourceforge.net/DTD/sodipodi-0.dtd"
   xmlns:inkscape="http://www.inkscape.org/namespaces/inkscape"
   inkscape:export-ydpi="59.53125"
   inkscape:export-xdpi="59.53125"
   inkscape:export-filename="D:\Desktop\bitmapp3.png"
   inkscape:version="0.92.4 (5da689c313, 2019-01-14)"
   sodipodi:docname="LogoToneZ2.svg"
   id="svg8"
   version="1.1"
   viewBox="0 0 1280 720"
   height="720mm"
   width="1280mm">
  <defs
     id="defs2" />
  <sodipodi:namedview
     inkscape:document-rotation="0"
     inkscape:snap-nodes="true"
     inkscape:window-maximized="1"
     inkscape:window-y="-8"
     inkscape:window-x="-8"
     inkscape:window-height="1017"
     inkscape:window-width="1920"
     inkscape:snap-others="false"
     inkscape:snap-grids="true"
     inkscape:snap-intersection-paths="true"
     inkscape:snap-smooth-nodes="true"
     inkscape:object-paths="true"
     inkscape:snap-text-baseline="false"
     showgrid="true"
     inkscape:current-layer="layer1"
     inkscape:document-units="mm"
     inkscape:cy="3430.0304"
     inkscape:cx="-574.20805"
     inkscape:zoom="0.088388348"
     inkscape:pageshadow="2"
     inkscape:pageopacity="0.0"
     borderopacity="1.0"
     bordercolor="#666666"
     pagecolor="#ffffff"
     id="base" />
  <metadata
     id="metadata5">
    <rdf:RDF>
      <cc:Work
         rdf:about="">
        <dc:format>image/svg+xml</dc:format>
        <dc:type
           rdf:resource="http://purl.org/dc/dcmitype/StillImage" />
        <dc:title />
      </cc:Work>
    </rdf:RDF>
  </metadata>
  <g
     transform="translate(0,423)"
     id="layer1"
     inkscape:groupmode="layer"
     inkscape:label="Layer 1">
    <rect
       style="opacity:1;fill:#141e28;fill-opacity:1;stroke-width:1.06577909;stroke-linecap:round;stroke-linejoin:round;stroke-opacity:0.58793969;paint-order:fill markers stroke"
       id="rect4519"
       width="1583.5463"
       height="689.39514"
       x="-178.75418"
       y="-401.3313" />
    <path
       style="opacity:1;fill:#ffffff;fill-opacity:1;stroke:none;stroke-width:1.07444406;stroke-linecap:round;stroke-linejoin:round;paint-order:fill markers stroke"
       d="m 1131.854,-187.64515 -10.3332,11.76851 -9.4328,10.74442 -47.1685,53.72223 -37.7335,42.977753 -47.16858,53.722214 -9.4329,10.7444252 -14.1503,16.1166638 -33.01821,37.605559 h 65.99647 247.95932 l -66.2271,-37.605559 -28.3826,-16.1166638 h -121.1163 l 6.4467,-10.7444252 32.2333,-53.722214 25.7866,-42.977753 32.2334,-53.72223 6.4467,-10.74442 z M 45.093638,-165.13222 93.6241,-111.40999 h 3.642998 32.231202 v 42.977753 53.722214 10.7444252 16.1166638 37.605559 h 53.72222 V 12.151066 -3.9655978 -14.710023 -68.432237 -106.2603 v -5.14969 h 32.23336 2.32516 12.32675 38.65474 49.83576 v -53.53331 -0.18883 H 274.59025 215.45388 183.22052 129.4983 97.267098 Z m 506.743072,0 a 108.51023,107.44457 0 0 0 -7.67634,0.26843 108.51023,107.44457 0 0 0 -10.76758,1.29482 108.51023,107.44457 0 0 0 -10.58284,2.3524 108.51023,107.44457 0 0 0 -10.29327,3.3849 108.51023,107.44457 0 0 0 -9.90078,4.38804 108.51023,107.44457 0 0 0 -5.03444,2.85814 108.51023,107.44457 0 0 0 -4.37329,2.48465 108.51023,107.44457 0 0 0 -8.82432,6.24732 108.51023,107.44457 0 0 0 -8.1486,7.08878 108.51023,107.44457 0 0 0 -7.39301,7.859 108.51023,107.44457 0 0 0 -6.56423,8.54935 108.51023,107.44457 0 0 0 -4.2999,6.94619 108.51023,107.44457 0 0 0 -1.3682,2.2097 108.51023,107.44457 0 0 0 -4.71961,9.672146 108.51023,107.44457 0 0 0 -3.71852,10.087541 108.51023,107.44457 0 0 0 -2.68408,10.406637 108.51023,107.44457 0 0 0 -1.61791,10.601732 108.51023,107.44457 0 0 0 -0.002,0.01626 108.51023,107.44457 0 0 0 -0.54139,10.727693 v 42.977752 2.423743 3.4857049 4.8349773 16.1166638 29.284832 8.320727 h 14.65401 39.6012 V 47.451629 35.246707 18.52148 12.150344 -3.9663202 -14.710745 -57.688498 a 54.255199,53.722366 0 0 1 0.27086,-5.363869 54.255199,53.722366 0 0 1 0.81003,-5.309245 54.255199,53.722366 0 0 1 0.0203,-0.07143 54.255199,53.722366 0 0 1 1.32198,-5.133051 54.255199,53.722366 0 0 1 1.85933,-5.042687 54.255199,53.722366 0 0 1 2.36088,-4.837135 54.255199,53.722366 0 0 1 2.83299,-4.576826 54.255199,53.722366 0 0 1 3.2821,-4.27478 54.255199,53.722366 0 0 1 3.6976,-3.930534 54.255199,53.722366 0 0 1 4.07319,-3.542234 54.255199,53.722366 0 0 1 4.41318,-3.124691 54.255199,53.722366 0 0 1 4.70284,-2.6715 54.255199,53.722366 0 0 1 4.95039,-2.19292 54.255199,53.722366 0 0 1 5.14766,-1.69356 54.255199,53.722366 0 0 1 5.29037,-1.17725 54.255199,53.722366 0 0 1 5.3849,-0.64629 54.255199,53.722366 0 0 1 3.83812,-0.13441 54.255199,53.722366 0 0 1 5.41629,0.26842 54.255199,53.722366 0 0 1 5.36179,0.80166 54.255199,53.722366 0 0 1 5.25468,1.32833 54.255199,53.722366 0 0 1 5.0952,1.84246 54.255199,53.722366 0 0 1 4.88325,2.33575 54.255199,53.722366 0 0 1 4.62301,2.8057 54.255199,53.722366 0 0 1 4.31668,3.250624 54.255199,53.722366 0 0 1 3.96834,3.65975 54.255199,53.722366 0 0 1 3.58005,4.035509 54.255199,53.722366 0 0 1 3.15405,4.367086 54.255199,53.722366 0 0 1 2.69879,4.658656 54.255199,53.722366 0 0 1 2.21388,4.90003 54.255199,53.722366 0 0 1 1.71033,5.097355 54.255199,53.722366 0 0 1 0.82257,3.626259 54.255199,53.722366 0 0 1 0.36508,1.613708 54.255199,53.722366 0 0 1 0.65476,5.330332 54.255199,53.722366 0 0 1 0.13646,3.80042 v 42.977753 10.7444338 16.1166552 23.054374 12.372843 2.178342 h 54.25305 V 12.149983 -3.9666724 -8.7345293 -14.711106 -57.688859 a 108.51023,107.44457 0 0 0 -0.27045,-7.600851 108.51023,107.44457 0 0 0 -0.3862,-3.14361 108.51023,107.44457 0 0 0 -0.92121,-7.519066 108.51023,107.44457 0 0 0 -2.37549,-10.477875 108.51023,107.44457 0 0 0 -3.42058,-10.192587 108.51023,107.44457 0 0 0 -4.43006,-9.802192 108.51023,107.44457 0 0 0 -2.88758,-4.98603 108.51023,107.44457 0 0 0 -2.50979,-4.33144 108.51023,107.44457 0 0 0 -6.30815,-8.73607 108.51023,107.44457 0 0 0 -7.15806,-8.06886 108.51023,107.44457 0 0 0 -7.9366,-7.31964 108.51023,107.44457 0 0 0 -8.6354,-6.49909 108.51023,107.44457 0 0 0 -7.01332,-4.25793 108.51023,107.44457 0 0 0 -2.2328,-1.35565 108.51023,107.44457 0 0 0 -9.76661,-4.67339 108.51023,107.44457 0 0 0 -10.19036,-3.68083 108.51023,107.44457 0 0 0 -10.50946,-2.65879 108.51023,107.44457 0 0 0 -10.72349,-1.60332 108.51023,107.44457 0 0 0 -10.83254,-0.53722 z m 227.87024,0 a 108.51023,107.44457 0 0 0 -7.67633,0.26843 108.51023,107.44457 0 0 0 -10.76754,1.29482 108.51023,107.44457 0 0 0 -10.58284,2.3524 108.51023,107.44457 0 0 0 -5.48131,1.80259 108.51023,107.44457 0 0 0 -4.812,1.58231 108.51023,107.44457 0 0 0 -9.90078,4.38804 108.51023,107.44457 0 0 0 -9.40774,5.34279 108.51023,107.44457 0 0 0 -8.82212,6.24732 108.51023,107.44457 0 0 0 -8.1486,7.08878 108.51023,107.44457 0 0 0 -7.39304,7.859 108.51023,107.44457 0 0 0 -6.26206,8.15483 108.51023,107.44457 0 0 0 -0.30214,0.39432 108.51023,107.44457 0 0 0 -4.30198,6.9462 108.51023,107.44457 0 0 0 -1.36832,2.20969 108.51023,107.44457 0 0 0 -4.71744,9.672148 108.51023,107.44457 0 0 0 -3.71852,10.087531 108.51023,107.44457 0 0 0 -2.6841,10.406646 108.51023,107.44457 0 0 0 -1.62004,10.601732 108.51023,107.44457 0 0 0 -0.002,0.01626 108.51023,107.44457 0 0 0 -0.5414,10.727702 108.51023,107.44457 0 0 0 0.27289,7.600806 108.51023,107.44457 0 0 0 1.30525,10.660535 108.51023,107.44457 0 0 0 2.37551,10.480024 108.51023,107.44457 0 0 0 3.42057,10.192507 108.51023,107.44457 0 0 0 1.82784,4.043881 108.51023,107.44457 0 0 0 2.60424,5.7583835 108.51023,107.44457 0 0 0 2.88759,4.986041 108.51023,107.44457 0 0 0 2.50775,4.32927579 108.51023,107.44457 0 0 0 6.31031,8.73607471 108.51023,107.44457 0 0 0 2.70708,3.051314 108.51023,107.44457 0 0 0 4.45097,5.017556 108.51023,107.44457 0 0 0 7.9366,7.321786 108.51023,107.44457 0 0 0 8.63542,6.499092 108.51023,107.44457 0 0 0 9.24611,5.613568 108.51023,107.44457 0 0 0 9.76649,4.671245 108.51023,107.44457 0 0 0 7.85063,2.837265 108.51023,107.44457 0 0 0 2.3377,0.84572 108.51023,107.44457 0 0 0 10.50946,2.656672 108.51023,107.44457 0 0 0 10.72551,1.605438 108.51023,107.44457 0 0 0 10.83254,0.537216 h 49.372 25.97772 33.15454 V 27.647735 12.150154 -3.9665099 h -2.31885 -12.32883 -93.85658 a 54.255199,53.722366 0 0 1 -5.41624,-0.2684277 54.255199,53.722366 0 0 1 -5.36172,-0.8016528 54.255199,53.722366 0 0 1 -5.25468,-1.3283231 54.255199,53.722366 0 0 1 -5.0952,-1.8425856 54.255199,53.722366 0 0 1 -4.88326,-2.3356259 54.255199,53.722366 0 0 1 -4.62312,-2.807818 54.255199,53.722366 0 0 1 -1.80677,-1.359829 54.255199,53.722366 0 0 1 -2.51194,-1.888683 54.255199,53.722366 0 0 1 -3.96834,-3.659878 54.255199,53.722366 0 0 1 -3.57794,-4.035392 54.255199,53.722366 0 0 1 -3.15413,-4.367075 54.255199,53.722366 0 0 1 -2.69866,-4.658657 54.255199,53.722366 0 0 1 -2.21604,-4.902188 54.255199,53.722366 0 0 1 -1.71033,-5.095198 54.255199,53.722366 0 0 1 -1.18776,-5.240093 54.255199,53.722366 0 0 1 -0.65263,-5.330204 54.255199,53.722366 0 0 1 -0.13645,-3.800385 54.255199,53.722366 0 0 1 0.27046,-5.363869 54.255199,53.722366 0 0 1 0.81003,-5.309254 54.255199,53.722366 0 0 1 0.0203,-0.07143 54.255199,53.722366 0 0 1 1.32414,-5.133051 54.255199,53.722366 0 0 1 1.85931,-5.042696 54.255199,53.722366 0 0 1 2.35873,-4.837127 54.255199,53.722366 0 0 1 2.83515,-4.576826 54.255199,53.722366 0 0 1 2.92741,-3.81095 54.255199,53.722366 0 0 1 0.35452,-0.463829 54.255199,53.722366 0 0 1 3.69545,-3.930534 54.255199,53.722366 0 0 1 4.07535,-3.542234 54.255199,53.722366 0 0 1 4.41102,-3.124695 54.255199,53.722366 0 0 1 4.70499,-2.67149 54.255199,53.722366 0 0 1 4.95038,-2.19293 54.255199,53.722366 0 0 1 5.14553,-1.69355 54.255199,53.722366 0 0 1 5.29251,-1.17725 54.255199,53.722366 0 0 1 5.38275,-0.64629 54.255199,53.722366 0 0 1 3.83811,-0.13443 54.255199,53.722366 0 0 1 5.41638,0.26843 54.255199,53.722366 0 0 1 5.36172,0.80167 54.255199,53.722366 0 0 1 5.25467,1.32831 54.255199,53.722366 0 0 1 5.09524,1.84246 54.255199,53.722366 0 0 1 4.88321,2.33575 54.255199,53.722366 0 0 1 4.62313,2.80572 54.255199,53.722366 0 0 1 4.31872,3.250609 54.255199,53.722366 0 0 1 3.96834,3.659758 54.255199,53.722366 0 0 1 3.57793,4.03551 54.255199,53.722366 0 0 1 3.15414,4.367085 54.255199,53.722366 0 0 1 2.69867,4.658648 54.255199,53.722366 0 0 1 2.21601,4.900038 54.255199,53.722366 0 0 1 1.71034,5.097356 54.255199,53.722366 0 0 1 0.82257,3.626248 h -53.7411 l 51.50413,29.245001 43.10574,24.477223 4.24318,2.409123 a 108.51023,107.44457 0 0 0 1.17738,-2.409123 108.51023,107.44457 0 0 0 0.55398,-1.137418 108.51023,107.44457 0 0 0 3.71852,-10.089691 108.51023,107.44457 0 0 0 2.68408,-10.404452 108.51023,107.44457 0 0 0 1.62209,-10.620686 108.51023,107.44457 0 0 0 0.53518,-10.601731 v -0.300096 a 108.51023,107.44457 0 0 0 -0.26639,-7.424531 108.51023,107.44457 0 0 0 -0.38416,-3.143619 108.51023,107.44457 0 0 0 -0.92126,-7.519065 108.51023,107.44457 0 0 0 -2.37557,-10.477866 108.51023,107.44457 0 0 0 -3.4205,-10.192596 108.51023,107.44457 0 0 0 -4.43209,-9.802185 108.51023,107.44457 0 0 0 -2.88758,-4.98603 108.51023,107.44457 0 0 0 -2.50771,-4.33143 108.51023,107.44457 0 0 0 -6.31036,-8.73607 108.51023,107.44457 0 0 0 -7.15804,-8.06888 108.51023,107.44457 0 0 0 -7.93661,-7.31964 108.51023,107.44457 0 0 0 -8.63539,-6.49907 108.51023,107.44457 0 0 0 -9.24613,-5.61359 108.51023,107.44457 0 0 0 -9.76649,-4.67339 108.51023,107.44457 0 0 0 -10.18833,-3.68083 108.51023,107.44457 0 0 0 -10.50946,-2.65879 108.51023,107.44457 0 0 0 -10.7255,-1.60333 108.51023,107.44457 0 0 0 -10.83268,-0.5372 z m 75.42108,0 a 119.36092,118.1887 0 0 1 7.78549,3.72275 119.36092,118.1887 0 0 1 10.17144,6.17601 119.36092,118.1887 0 0 1 9.49797,7.14968 119.36092,118.1887 0 0 1 5.62828,5.19173 119.36092,118.1887 0 0 1 3.10159,2.86024 119.36092,118.1887 0 0 1 7.87365,8.87675 119.36092,118.1887 0 0 1 6.93983,9.60921 119.36092,118.1887 0 0 1 5.49177,9.47892 119.36092,118.1887 0 0 1 0.3797,0.65694 h 74.87963 11.34672 l -25.7867,42.977753 -32.2333,53.722214 -6.44667,10.7444252 -9.67,16.1166638 -12.46949,20.783728 -10.09383,16.821831 -6.44667,10.744425 -11.99306,19.990472 17.55202,-19.990472 9.43284,-10.744425 1.5487,-1.76275 31.46952,-35.842809 14.15033,-16.1166638 9.43283,-10.7444252 47.16858,-53.722214 37.7334,-42.977753 47.1686,-53.72223 h -68.2838 -11.3467 -107.49276 -23.40686 z m -525.78732,0.2664 v 49.23351 4.22225 0.26638 a 54.255199,53.722366 0 0 1 0.0406,0.002 54.255199,53.722366 0 0 1 5.36179,0.80166 54.255199,53.722366 0 0 1 5.25468,1.32833 54.255199,53.722366 0 0 1 5.09521,1.84247 54.255199,53.722366 0 0 1 4.88328,2.33573 54.255199,53.722366 0 0 1 4.62313,2.80572 54.255199,53.722366 0 0 1 4.31872,3.250621 54.255199,53.722366 0 0 1 3.96826,3.659749 54.255199,53.722366 0 0 1 3.57795,4.03551 54.255199,53.722366 0 0 1 3.15415,4.367084 54.255199,53.722366 0 0 1 2.69869,4.658657 54.255199,53.722366 0 0 1 2.21604,4.90003 54.255199,53.722366 0 0 1 1.71031,5.097355 54.255199,53.722366 0 0 1 0.82259,3.626258 54.255199,53.722366 0 0 1 0.36507,1.613709 54.255199,53.722366 0 0 1 0.65262,5.330331 54.255199,53.722366 0 0 1 0.13645,3.800421 54.255199,53.722366 0 0 1 -0.27046,5.363833 54.255199,53.722366 0 0 1 -0.40926,2.681893 54.255199,53.722366 0 0 1 -0.40081,2.627353 54.255199,53.722366 0 0 1 -1.34306,5.202248 54.255199,53.722366 0 0 1 -1.85931,5.044845 54.255199,53.722366 0 0 1 -2.35873,4.834978 54.255199,53.722366 0 0 1 -2.83515,4.578975 54.255199,53.722366 0 0 1 -3.28208,4.274662 54.255199,53.722366 0 0 1 -3.69546,3.928504 54.255199,53.722366 0 0 1 -4.07536,3.54439 54.255199,53.722366 0 0 1 -1.26539,0.896072 54.255199,53.722366 0 0 1 -3.14571,2.228621 54.255199,53.722366 0 0 1 -2.45319,1.393447 54.255199,53.722366 0 0 1 -2.25175,1.2779265 54.255199,53.722366 0 0 1 -4.95037,2.1929601 54.255199,53.722366 0 0 1 -5.1456,1.6935175 54.255199,53.722366 0 0 1 -5.29243,1.1752172 54.255199,53.722366 0 0 1 -3.84456,0.4637575 v 0.3191858 2.3021161 13.8145483 37.41664 a 108.51023,107.44457 0 0 0 2.30006,-0.07956 108.51023,107.44457 0 0 0 10.76744,-1.294812 108.51023,107.44457 0 0 0 10.58297,-2.352477 108.51023,107.44457 0 0 0 10.2931,-3.386988 108.51023,107.44457 0 0 0 9.90094,-4.385886 108.51023,107.44457 0 0 0 9.40762,-5.344905 108.51023,107.44457 0 0 0 8.82226,-6.247352 108.51023,107.44457 0 0 0 8.14858,-7.086743 108.51023,107.44457 0 0 0 1.71869,-1.827811 108.51023,107.44457 0 0 0 5.09094,-5.409958 108.51023,107.44457 0 0 0 0.58342,-0.621115 108.51023,107.44457 0 0 0 1.98525,-2.5854439 108.51023,107.44457 0 0 0 4.57894,-5.9640249 108.51023,107.44457 0 0 0 4.29983,-6.9460808 108.51023,107.44457 0 0 0 1.37035,-2.2118429 108.51023,107.44457 0 0 0 4.16347,-8.5325825 108.51023,107.44457 0 0 0 0.55411,-1.137417 108.51023,107.44457 0 0 0 2.27479,-6.173848 108.51023,107.44457 0 0 0 1.44373,-3.915834 108.51023,107.44457 0 0 0 2.68396,-10.404452 108.51023,107.44457 0 0 0 1.6222,-10.620694 108.51023,107.44457 0 0 0 0.54141,-10.725507 108.51023,107.44457 0 0 0 -0.2729,-7.600851 108.51023,107.44457 0 0 0 -0.38416,-3.143619 108.51023,107.44457 0 0 0 -0.92122,-7.519056 108.51023,107.44457 0 0 0 -2.37557,-10.477876 108.51023,107.44457 0 0 0 -3.42062,-10.192588 108.51023,107.44457 0 0 0 -4.43208,-9.802181 108.51023,107.44457 0 0 0 -2.88759,-4.98605 108.51023,107.44457 0 0 0 -2.50764,-4.33144 108.51023,107.44457 0 0 0 -6.31029,-8.73607 108.51023,107.44457 0 0 0 -0.0203,-0.0244 108.51023,107.44457 0 0 0 -7.13711,-8.04576 108.51023,107.44457 0 0 0 -7.93661,-7.31962 108.51023,107.44457 0 0 0 -8.63336,-6.4991 108.51023,107.44457 0 0 0 -9.24816,-5.61357 108.51023,107.44457 0 0 0 -9.76648,-4.67339 108.51023,107.44457 0 0 0 -10.18842,-3.68084 108.51023,107.44457 0 0 0 -10.50937,-2.65879 108.51023,107.44457 0 0 0 -10.72546,-1.60331 108.51023,107.44457 0 0 0 -5.45633,-0.27087 z m -109.99199,79.120661 a 108.51023,107.44457 0 0 0 -1.73124,6.711109 108.51023,107.44457 0 0 0 -1.62008,10.601732 108.51023,107.44457 0 0 0 0,0.01626 108.51023,107.44457 0 0 0 -0.54144,10.727702 108.51023,107.44457 0 0 0 0.27288,7.600806 108.51023,107.44457 0 0 0 1.30729,10.660535 108.51023,107.44457 0 0 0 2.37337,10.480024 108.51023,107.44457 0 0 0 3.42068,10.192507 108.51023,107.44457 0 0 0 1.82778,4.043881 108.51023,107.44457 0 0 0 2.60427,5.7583834 108.51023,107.44457 0 0 0 2.88754,4.9860412 108.51023,107.44457 0 0 0 2.50774,4.32927572 108.51023,107.44457 0 0 0 6.3104,8.73607468 108.51023,107.44457 0 0 0 2.70703,3.051314 108.51023,107.44457 0 0 0 4.451,5.017556 108.51023,107.44457 0 0 0 7.93662,7.321786 108.51023,107.44457 0 0 0 8.63536,6.499092 108.51023,107.44457 0 0 0 9.24616,5.613568 108.51023,107.44457 0 0 0 9.76646,4.671245 108.51023,107.44457 0 0 0 10.18837,3.682984 108.51023,107.44457 0 0 0 10.50936,2.656674 108.51023,107.44457 0 0 0 10.72556,1.605436 108.51023,107.44457 0 0 0 5.46454,0.270451 V 12.150272 -3.9663835 -4.2327794 a 54.255199,53.722366 0 0 1 -0.0487,-0.00181 54.255199,53.722366 0 0 1 -5.36169,-0.8016618 54.255199,53.722366 0 0 1 -5.25469,-1.3283141 54.255199,53.722366 0 0 1 -5.09521,-1.8425946 54.255199,53.722366 0 0 1 -4.88337,-2.3356171 54.255199,53.722366 0 0 1 -4.62295,-2.807827 54.255199,53.722366 0 0 1 -1.80682,-1.359829 54.255199,53.722366 0 0 1 -2.51189,-1.888674 54.255199,53.722366 0 0 1 -3.96628,-3.659886 54.255199,53.722366 0 0 1 -3.58007,-4.035384 54.255199,53.722366 0 0 1 -3.15411,-4.367084 54.255199,53.722366 0 0 1 -2.69862,-4.658657 54.255199,53.722366 0 0 1 -2.21607,-4.902179 54.255199,53.722366 0 0 1 -1.7103,-5.095207 54.255199,53.722366 0 0 1 -1.18782,-5.240092 54.255199,53.722366 0 0 1 -0.6526,-5.330205 54.255199,53.722366 0 0 1 -0.11776,-3.250616 l -19.88763,-11.29423 z"
       id="path8761"
       inkscape:connector-curvature="0" />
  </g>
</svg>
