<?xml version="1.0" encoding="UTF-8" standalone="no"?>
<!-- Created with Inkscape (http://www.inkscape.org/) -->

<svg
   xmlns:dc="http://purl.org/dc/elements/1.1/"
   xmlns:cc="http://creativecommons.org/ns#"
   xmlns:rdf="http://www.w3.org/1999/02/22-rdf-syntax-ns#"
   xmlns:svg="http://www.w3.org/2000/svg"
   xmlns="http://www.w3.org/2000/svg"
   xmlns:sodipodi="http://sodipodi.sourceforge.net/DTD/sodipodi-0.dtd"
   xmlns:inkscape="http://www.inkscape.org/namespaces/inkscape"
   width="210mm"
   height="297mm"
   viewBox="0 0 210 297"
   version="1.1"
   id="svg891"
   inkscape:version="0.92.3 (2405546, 2018-03-11)"
   sodipodi:docname="logov5.svg">
  <defs
     id="defs885" />
  <sodipodi:namedview
     id="base"
     pagecolor="#ffffff"
     bordercolor="#666666"
     borderopacity="1.0"
     inkscape:pageopacity="0.0"
     inkscape:pageshadow="2"
     inkscape:zoom="0.24748737"
     inkscape:cx="258.96185"
     inkscape:cy="656.31507"
     inkscape:document-units="mm"
     inkscape:current-layer="layer1"
     showgrid="false"
     inkscape:window-width="716"
     inkscape:window-height="690"
     inkscape:window-x="0"
     inkscape:window-y="0"
     inkscape:window-maximized="0" />
  <metadata
     id="metadata888">
    <rdf:RDF>
      <cc:Work
         rdf:about="">
        <dc:format>image/svg+xml</dc:format>
        <dc:type
           rdf:resource="http://purl.org/dc/dcmitype/StillImage" />
        <dc:title />
      </cc:Work>
    </rdf:RDF>
  </metadata>
  <g
     inkscape:label="Calque 1"
     inkscape:groupmode="layer"
     id="layer1">
    <path
       style="fill:#ffffff;stroke-width:0.12123927;fill-opacity:1"
       d="M 96.628637,236.29406 C 79.445049,235.09578 62.992813,228.94552 49.256303,218.5851 33.624495,206.79519 22.33386,190.0907 17.158055,171.09574 c -1.484204,-5.44695 -2.506385,-11.5846 -2.909868,-17.47216 -0.155479,-2.26874 -0.155479,-9.61271 0,-11.88145 1.197202,-17.4694 7.278162,-33.82826 17.722036,-47.675406 11.789904,-15.63181 28.494397,-26.92245 47.489353,-32.09825 5.446958,-1.4842 11.584599,-2.50639 17.47216,-2.90987 2.268739,-0.15548 9.612704,-0.15548 11.881444,0 17.46941,1.1972 33.82828,7.27816 47.67543,17.72204 15.63181,11.7899 26.92245,28.494386 32.09825,47.489326 1.4842,5.44696 2.50638,11.5846 2.90987,17.47216 0.15547,2.26874 0.15547,9.61271 0,11.88145 -1.19721,17.46941 -7.27817,33.82828 -17.72203,47.67543 -11.78992,15.63182 -28.49441,26.92245 -47.48936,32.09826 -5.44696,1.48419 -11.5846,2.50638 -17.47216,2.90986 -2.0665,0.14162 -10.0897,0.13301 -12.184543,-0.0131 z m 14.124373,-9.97385 c 10.27989,-1.1196 19.23528,-3.71559 27.88503,-8.0833 21.52374,-10.86847 36.90826,-31.04274 41.6454,-54.61109 1.13356,-5.63972 1.45516,-9.02923 1.45516,-15.33676 0,-6.30754 -0.3216,-9.69705 -1.45516,-15.33677 -5.52383,-27.48237 -25.37899,-49.979276 -52.01136,-58.931516 -5.82285,-1.95729 -11.69364,-3.19006 -18.24651,-3.83145 -2.21463,-0.21676 -10.879203,-0.21676 -13.093834,0 -10.402089,1.01815 -19.771175,3.68747 -28.612468,8.1519 -21.52374,10.86846 -36.90827,31.042726 -41.645404,54.611066 -1.133559,5.63972 -1.455157,9.02923 -1.455157,15.33677 0,6.30753 0.321598,9.69704 1.455157,15.33676 5.523838,27.48239 25.378996,49.97929 52.011361,58.93153 5.848612,1.96596 12.281033,3.31091 18.185891,3.80246 0.866861,0.0722 1.794341,0.15184 2.061067,0.17706 1.323907,0.1252 10.170817,-0.0369 11.820827,-0.21666 z M 94.021993,215.26436 c -2.86132,-0.33083 -4.323077,-0.659 -5.684706,-1.27624 -0.425982,-0.1931 -0.833862,-0.3511 -0.906397,-0.3511 -0.206574,0 -2.374665,-1.32814 -3.047419,-1.8668 -1.708272,-1.3678 -3.237455,-3.07647 -4.242719,-4.74074 -1.751199,-2.89919 -2.857906,-6.52368 -3.461319,-11.33587 -0.208723,-1.66457 -0.285144,-8.19834 -0.126496,-10.81516 0.482758,-7.96288 2.076102,-17.23482 4.995994,-29.07256 0.468758,-1.90043 0.957019,-3.83722 1.085026,-4.30399 0.128007,-0.46678 0.611519,-2.2399 1.074469,-3.94028 1.384812,-5.08629 3.583888,-12.52582 5.339793,-18.06465 0.412214,-1.30029 0.904917,-2.85519 1.094896,-3.45532 0.189979,-0.60014 0.536568,-1.68614 0.770199,-2.41335 l 0.424782,-1.32219 -2.386158,0.0755 c -3.967602,0.12561 -7.39209,0.49702 -10.448572,1.13323 -1.100246,0.22902 -2.327794,0.46683 -2.727883,0.52848 -0.40009,0.0617 -1.593998,0.35917 -2.65313,0.66116 -1.059133,0.30198 -2.01191,0.54906 -2.117283,0.54906 -0.247298,0 -3.283019,0.9641 -5.231827,1.66155 -0.83352,0.2983 -1.710544,0.59019 -1.948943,0.64865 -0.238399,0.0585 -1.023905,0.35366 -1.745569,0.65601 -0.721664,0.30235 -1.386627,0.54973 -1.477696,0.54973 -0.09107,0 -0.77494,0.27279 -1.519714,0.6062 -0.744774,0.33341 -1.412372,0.60526 -1.483551,0.60412 -0.129026,-0.002 -1.764041,0.71148 -4.20413,1.83476 -0.707414,0.32566 -1.334827,0.59174 -1.394251,0.5913 -0.05942,-4.8e-4 -0.680898,0.27985 -1.381055,0.62286 -1.162008,0.56927 -3.376332,1.63247 -4.122135,1.97922 -0.166704,0.0775 -0.630444,0.30874 -1.030534,0.51386 -0.40009,0.20511 -2.473281,1.24779 -4.607092,2.31706 -2.133811,1.06927 -4.203794,2.13941 -4.59996,2.3781 -0.396168,0.23868 -0.846268,0.43397 -1.000224,0.43397 -0.366105,0 -0.36465,-0.24462 0.01587,-2.66726 0.723974,-4.60931 2.037356,-9.4742 3.714987,-13.76066 l 0.711758,-1.81859 1.30622,-0.65357 c 2.702928,-1.3524 5.673548,-2.73056 6.640749,-3.08083 0.266726,-0.0966 0.921418,-0.36797 1.454871,-0.60306 2.061684,-0.90855 3.884883,-1.6676 4.00114,-1.66578 0.06681,0.001 0.765174,-0.27089 1.551906,-0.6043 0.786734,-0.33341 1.490832,-0.6062 1.564664,-0.6062 0.07383,0 0.848532,-0.26557 1.721554,-0.59017 1.829775,-0.68032 3.146802,-1.13653 4.436436,-1.53676 3.746754,-1.16276 4.937779,-1.51434 5.123635,-1.51243 0.117395,10e-4 1.099433,-0.24527 2.182307,-0.54773 1.082874,-0.30246 2.323487,-0.59872 2.756918,-0.65836 0.43343,-0.0596 1.742814,-0.306 2.909742,-0.54746 1.166928,-0.24145 2.667264,-0.48888 3.33408,-0.54982 0.666816,-0.061 1.812527,-0.19079 2.546025,-0.28854 2.810753,-0.37457 4.943039,-0.49217 8.971706,-0.4948 4.197227,-0.003 6.274496,0.11567 9.699142,0.5529 1.000231,0.1277 2.009531,0.23023 2.242921,0.22783 0.23338,-0.002 1.97923,0.24311 3.87966,0.54558 9.70199,1.54412 10.54035,1.64602 14.19554,1.72541 3.79521,0.0824 5.92939,-0.12266 9.18407,-0.88255 0.6894,-0.16096 1.3798,-0.29266 1.53422,-0.29266 0.15441,0 1.0432,-0.24551 1.97508,-0.54557 0.93189,-0.30007 1.77273,-0.54558 1.86853,-0.54558 0.0958,0 0.86023,-0.27279 1.69872,-0.6062 0.83849,-0.3334 1.58899,-0.60619 1.66778,-0.60619 0.0788,0 0.73029,-0.27279 1.44776,-0.6062 0.71747,-0.33341 1.37505,-0.6062 1.4613,-0.6062 0.0863,0 0.6819,-0.26469 1.32368,-0.5882 0.64178,-0.32352 1.93068,-0.9696 2.86422,-1.43575 2.66454,-1.33049 4.02609,-2.06508 4.79353,-2.58625 0.39026,-0.26501 0.84035,-0.48184 1.00022,-0.48184 0.90708,0 8.81607,10.07059 8.81536,11.22467 0,0.39122 -0.33858,0.65076 -1.81837,1.39485 -0.43343,0.21794 -1.13,0.60477 -1.54793,0.85962 -0.41794,0.25485 -0.81706,0.46336 -0.88693,0.46336 -0.0699,0 -0.58888,0.27279 -1.15336,0.6062 -0.56446,0.33341 -1.06556,0.60423 -1.11352,0.60182 -0.048,-0.002 -0.57823,0.24191 -1.17836,0.54293 -2.28428,1.14577 -6.3179,2.98083 -6.54716,2.97858 -0.0668,-6.1e-4 -0.76518,0.27159 -1.55192,0.605 -0.78673,0.33341 -1.50419,0.6062 -1.59435,0.6062 -0.0902,0 -0.81032,0.24543 -1.60032,0.5454 -0.79001,0.29997 -1.62733,0.57884 -1.86071,0.61972 -0.23339,0.0409 -1.10631,0.28025 -1.93983,0.53194 -0.83352,0.25168 -1.81556,0.51774 -2.18231,0.59122 -7.34693,1.47216 -6.66923,1.40391 -13.88189,1.39782 -5.04864,-0.004 -6.32543,-0.0403 -7.63808,-0.21567 -1.86238,-0.2488 -6.09727,-0.90833 -6.38259,-0.994 -0.16483,-0.0495 -0.36058,0.43992 -1.12941,2.82367 -0.51152,1.58595 -0.9778,3.01994 -1.03618,3.18664 -0.0584,0.16671 -0.38743,1.2033 -0.73122,2.30355 -1.20529,3.85732 -1.34659,4.3064 -1.44962,4.60709 -0.0571,0.16671 -0.22267,0.71228 -0.36789,1.2124 -0.14522,0.50011 -0.33885,1.139 -0.43029,1.41975 -0.14974,0.45982 -0.79484,2.62315 -1.20351,4.03601 -5.605362,19.37887 -8.178888,31.56763 -8.921039,42.25189 -0.176391,2.53938 -0.07896,7.03212 0.19062,8.78985 0.245806,1.60273 0.699701,3.34204 1.12087,4.29516 0.36515,0.82635 1.138037,1.94529 1.458363,2.11135 0.403585,0.20922 1.308873,0.26597 2.413581,0.15132 1.316006,-0.13658 4.541345,-1.16587 6.084295,-1.94166 0.54043,-0.27172 1.052,-0.49416 1.13684,-0.49432 0.0848,0 0.64035,-0.27293 1.23448,-0.60619 0.59413,-0.33325 1.13513,-0.60592 1.20222,-0.60592 0.0671,0 0.50845,-0.2366 0.98082,-0.52577 1.16556,-0.71351 2.08342,-1.17197 2.3418,-1.16968 0.13576,0.001 0.48122,0.41087 0.94184,1.11687 1.4717,2.25574 4.91032,6.71373 6.93241,8.98752 0.28809,0.32394 0.5238,0.71168 0.5238,0.86164 0,0.40605 -1.25405,1.48185 -2.50752,2.15113 -2.08529,1.11342 -6.7197,3.36948 -6.9216,3.36948 -0.0543,0 -0.72373,0.2534 -1.48768,0.56312 -0.76394,0.30972 -1.57994,0.60443 -1.81332,0.65491 -0.23339,0.0505 -1.14662,0.31377 -2.02941,0.58508 -0.88279,0.27131 -2.05577,0.54968 -2.60663,0.61862 -0.55087,0.069 -1.328927,0.18085 -1.729017,0.2487 -0.773453,0.13114 -4.44055,0.25163 -5.152669,0.1693 z"
       id="path816"
       inkscape:connector-curvature="0" />
  </g>
</svg>
